  0
SECTION
  2
HEADER
  9
$ACADVER
  1
AC1014
  9
$ACADMAINTVER
 70
     9
  9
$DWGCODEPAGE
  3
ANSI_1252
  9
$INSBASE
 10
0.0
 20
0.0
 30
0.0
  9
$EXTMIN
 10
-907.511919026514
 20
-230.0
 30
0.0
  9
$EXTMAX
 10
-237.7816492884431
 20
50.15000000129284
 30
0.0
  9
$LIMMIN
 10
0.0
 20
0.0
  9
$LIMMAX
 10
12.0
 20
9.0
  9
$ORTHOMODE
 70
     0
  9
$REGENMODE
 70
     1
  9
$FILLMODE
 70
     1
  9
$QTEXTMODE
 70
     0
  9
$MIRRTEXT
 70
     1
  9
$DRAGMODE
 70
     2
  9
$LTSCALE
 40
1.0
  9
$OSMODE
 70
    37
  9
$ATTMODE
 70
     1
  9
$TEXTSIZE
 40
0.2
  9
$TRACEWID
 40
0.05
  9
$TEXTSTYLE
  7
STANDARD
  9
$CLAYER
  8
0
  9
$CELTYPE
  6
BYLAYER
  9
$CECOLOR
 62
   256
  9
$CELTSCALE
 40
1.0
  9
$DELOBJ
 70
     1
  9
$DISPSILH
 70
     0
  9
$DIMSCALE
 40
1.0
  9
$DIMASZ
 40
0.18
  9
$DIMEXO
 40
0.0625
  9
$DIMDLI
 40
0.38
  9
$DIMRND
 40
0.0
  9
$DIMDLE
 40
0.0
  9
$DIMEXE
 40
0.18
  9
$DIMTP
 40
0.0
  9
$DIMTM
 40
0.0
  9
$DIMTXT
 40
0.18
  9
$DIMCEN
 40
0.09
  9
$DIMTSZ
 40
0.0
  9
$DIMTOL
 70
     0
  9
$DIMLIM
 70
     0
  9
$DIMTIH
 70
     1
  9
$DIMTOH
 70
     1
  9
$DIMSE1
 70
     0
  9
$DIMSE2
 70
     0
  9
$DIMTAD
 70
     0
  9
$DIMZIN
 70
     0
  9
$DIMBLK
  1

  9
$DIMASO
 70
     1
  9
$DIMSHO
 70
     1
  9
$DIMPOST
  1

  9
$DIMAPOST
  1

  9
$DIMALT
 70
     0
  9
$DIMALTD
 70
     2
  9
$DIMALTF
 40
25.4
  9
$DIMLFAC
 40
1.0
  9
$DIMTOFL
 70
     0
  9
$DIMTVP
 40
0.0
  9
$DIMTIX
 70
     0
  9
$DIMSOXD
 70
     0
  9
$DIMSAH
 70
     0
  9
$DIMBLK1
  1

  9
$DIMBLK2
  1

  9
$DIMSTYLE
  2
STANDARD
  9
$DIMCLRD
 70
     0
  9
$DIMCLRE
 70
     0
  9
$DIMCLRT
 70
     0
  9
$DIMTFAC
 40
1.0
  9
$DIMGAP
 40
0.09
  9
$DIMJUST
 70
     0
  9
$DIMSD1
 70
     0
  9
$DIMSD2
 70
     0
  9
$DIMTOLJ
 70
     1
  9
$DIMTZIN
 70
     0
  9
$DIMALTZ
 70
     0
  9
$DIMALTTZ
 70
     0
  9
$DIMFIT
 70
     5
  9
$DIMUPT
 70
     0
  9
$DIMUNIT
 70
     2
  9
$DIMDEC
 70
     4
  9
$DIMTDEC
 70
     4
  9
$DIMALTU
 70
     2
  9
$DIMALTTD
 70
     2
  9
$DIMTXSTY
  7
STANDARD
  9
$DIMAUNIT
 70
     0
  9
$LUNITS
 70
     2
  9
$LUPREC
 70
     3
  9
$SKETCHINC
 40
0.1
  9
$FILLETRAD
 40
0.5
  9
$AUNITS
 70
     0
  9
$AUPREC
 70
     0
  9
$MENU
  1
.
  9
$ELEVATION
 40
0.0
  9
$PELEVATION
 40
0.0
  9
$THICKNESS
 40
0.0
  9
$LIMCHECK
 70
     0
  9
$CHAMFERA
 40
0.0
  9
$CHAMFERB
 40
0.0
  9
$CHAMFERC
 40
0.0
  9
$CHAMFERD
 40
0.0
  9
$SKPOLY
 70
     0
  9
$TDCREATE
 40
2458182.497938646
  9
$TDUPDATE
 40
2458182.497951736
  9
$TDINDWG
 40
0.0000000116
  9
$TDUSRTIMER
 40
0.0000000116
  9
$USRTIMER
 70
     1
  9
$ANGBASE
 50
0.0
  9
$ANGDIR
 70
     0
  9
$PDMODE
 70
     0
  9
$PDSIZE
 40
0.0
  9
$PLINEWID
 40
0.0
  9
$COORDS
 70
     1
  9
$SPLFRAME
 70
     0
  9
$SPLINETYPE
 70
     6
  9
$SPLINESEGS
 70
     8
  9
$ATTDIA
 70
     0
  9
$ATTREQ
 70
     1
  9
$HANDLING
 70
     1
  9
$HANDSEED
  5
18A
  9
$SURFTAB1
 70
     6
  9
$SURFTAB2
 70
     6
  9
$SURFTYPE
 70
     6
  9
$SURFU
 70
     6
  9
$SURFV
 70
     6
  9
$UCSNAME
  2

  9
$UCSORG
 10
0.0
 20
0.0
 30
0.0
  9
$UCSXDIR
 10
1.0
 20
0.0
 30
0.0
  9
$UCSYDIR
 10
0.0
 20
1.0
 30
0.0
  9
$PUCSNAME
  2

  9
$PUCSORG
 10
0.0
 20
0.0
 30
0.0
  9
$PUCSXDIR
 10
1.0
 20
0.0
 30
0.0
  9
$PUCSYDIR
 10
0.0
 20
1.0
 30
0.0
  9
$USERI1
 70
     0
  9
$USERI2
 70
     0
  9
$USERI3
 70
     0
  9
$USERI4
 70
     0
  9
$USERI5
 70
     0
  9
$USERR1
 40
0.0
  9
$USERR2
 40
0.0
  9
$USERR3
 40
0.0
  9
$USERR4
 40
0.0
  9
$USERR5
 40
0.0
  9
$WORLDVIEW
 70
     1
  9
$SHADEDGE
 70
     3
  9
$SHADEDIF
 70
    70
  9
$TILEMODE
 70
     1
  9
$MAXACTVP
 70
    64
  9
$PINSBASE
 10
0.0
 20
0.0
 30
0.0
  9
$PLIMCHECK
 70
     0
  9
$PEXTMIN
 10
1.000000000000000E+20
 20
1.000000000000000E+20
 30
1.000000000000000E+20
  9
$PEXTMAX
 10
-1.000000000000000E+20
 20
-1.000000000000000E+20
 30
-1.000000000000000E+20
  9
$PLIMMIN
 10
0.0
 20
0.0
  9
$PLIMMAX
 10
12.0
 20
9.0
  9
$UNITMODE
 70
     0
  9
$VISRETAIN
 70
     1
  9
$PLINEGEN
 70
     0
  9
$PSLTSCALE
 70
     1
  9
$TREEDEPTH
 70
  3020
  9
$PICKSTYLE
 70
     1
  9
$CMLSTYLE
  2
STANDARD
  9
$CMLJUST
 70
     0
  9
$CMLSCALE
 40
1.0
  9
$PROXYGRAPHICS
 70
     1
  9
$MEASUREMENT
 70
     0
  0
ENDSEC
  0
SECTION
  2
CLASSES
  0
CLASS
  1
ACDBDICTIONARYWDFLT
  2
AcDbDictionaryWithDefault
  3
ObjectDBX Classes
 90
        0
280
     0
281
     0
  0
CLASS
  1
VISUALSTYLE
  2
AcDbVisualStyle
  3
ObjectDBX Classes
 90
     4095
280
     0
281
     0
  0
CLASS
  1
MATERIAL
  2
AcDbMaterial
  3
ObjectDBX Classes
 90
     1153
280
     0
281
     0
  0
CLASS
  1
SCALE
  2
AcDbScale
  3
ObjectDBX Classes
 90
     1153
280
     0
281
     0
  0
CLASS
  1
TABLESTYLE
  2
AcDbTableStyle
  3
ObjectDBX Classes
 90
     4095
280
     0
281
     0
  0
CLASS
  1
MLEADERSTYLE
  2
AcDbMLeaderStyle
  3
ACDB_MLEADERSTYLE_CLASS
 90
     4095
280
     0
281
     0
  0
CLASS
  1
SUN
  2
AcDbSun
  3
SCENEOE
 90
     1153
280
     0
281
     0
  0
CLASS
  1
DICTIONARYVAR
  2
AcDbDictionaryVar
  3
ObjectDBX Classes
 90
        0
280
     0
281
     0
  0
CLASS
  1
XRECORD
  2
AcDbXrecord
  3
ObjectDBX Classes
 90
        0
280
     0
281
     0
  0
CLASS
  1
LWPOLYLINE
  2
AcDbPolyline
  3
ObjectDBX Classes
 90
        0
280
     0
281
     1
  0
CLASS
  1
HATCH
  2
AcDbHatch
  3
ObjectDBX Classes
 90
        0
280
     0
281
     1
  0
CLASS
  1
ACDBPLACEHOLDER
  2
AcDbPlaceHolder
  3
ObjectDBX Classes
 90
        0
280
     0
281
     0
  0
CLASS
  1
LAYOUT
  2
AcDbLayout
  3
ObjectDBX Classes
 90
        0
280
     0
281
     0
  0
ENDSEC
  0
SECTION
  2
TABLES
  0
TABLE
  2
VPORT
  5
8
102
{ACAD_XDICTIONARY
360
17F
102
}
330
0
100
AcDbSymbolTable
 70
     1
  0
VPORT
  5
29
330
8
100
AcDbSymbolTableRecord
100
AcDbViewportTableRecord
  2
*ACTIVE
 70
     0
 10
0.0
 20
0.0
 11
1.0
 21
1.0
 12
-572.6467841574786
 22
-89.92499999935359
 13
0.0
 23
0.0
 14
0.5
 24
0.5
 15
0.5
 25
0.5
 16
0.0
 26
0.0
 36
1.0
 17
0.0
 27
0.0
 37
0.0
 40
285.7530000013187
 41
2.390613134874104
 42
50.0
 43
0.0
 44
0.0
 50
0.0
 51
0.0
 71
     0
 72
   100
 73
     1
 74
     3
 75
     0
 76
     0
 77
     0
 78
     0
  0
ENDTAB
  0
TABLE
  2
LTYPE
  5
5
330
0
100
AcDbSymbolTable
 70
     1
  0
LTYPE
  5
14
330
5
100
AcDbSymbolTableRecord
100
AcDbLinetypeTableRecord
  2
BYBLOCK
 70
     0
  3

 72
    65
 73
     0
 40
0.0
  0
LTYPE
  5
15
330
5
100
AcDbSymbolTableRecord
100
AcDbLinetypeTableRecord
  2
BYLAYER
 70
     0
  3

 72
    65
 73
     0
 40
0.0
  0
LTYPE
  5
16
330
5
100
AcDbSymbolTableRecord
100
AcDbLinetypeTableRecord
  2
CONTINUOUS
 70
     0
  3
Solid line
 72
    65
 73
     0
 40
0.0
  0
ENDTAB
  0
TABLE
  2
LAYER
  5
2
330
0
100
AcDbSymbolTable
 70
     3
  0
LAYER
  5
10
330
2
100
AcDbSymbolTableRecord
100
AcDbLayerTableRecord
  2
0
 70
     0
 62
     7
  6
CONTINUOUS
  0
LAYER
  5
6E
330
2
100
AcDbSymbolTableRecord
100
AcDbLayerTableRecord
  2
LASERCUTS$INNER
 70
     0
 62
     1
  6
CONTINUOUS
  0
LAYER
  5
73
330
2
100
AcDbSymbolTableRecord
100
AcDbLayerTableRecord
  2
LASERCUTS$OUTER
 70
     0
 62
     3
  6
CONTINUOUS
  0
ENDTAB
  0
TABLE
  2
STYLE
  5
3
330
0
100
AcDbSymbolTable
 70
     1
  0
STYLE
  5
11
330
3
100
AcDbSymbolTableRecord
100
AcDbTextStyleTableRecord
  2
STANDARD
 70
     0
 40
0.0
 41
1.0
 50
0.0
 71
     0
 42
0.2
  3
txt
  4

  0
ENDTAB
  0
TABLE
  2
VIEW
  5
6
330
0
100
AcDbSymbolTable
 70
     0
  0
ENDTAB
  0
TABLE
  2
UCS
  5
7
330
0
100
AcDbSymbolTable
 70
     0
  0
ENDTAB
  0
TABLE
  2
APPID
  5
9
330
0
100
AcDbSymbolTable
 70
     2
  0
APPID
  5
12
330
9
100
AcDbSymbolTableRecord
100
AcDbRegAppTableRecord
  2
ACAD
 70
     0
  0
APPID
  5
189
330
9
100
AcDbSymbolTableRecord
100
AcDbRegAppTableRecord
  2
ACAD_MLEADERVER
 70
     0
  0
ENDTAB
  0
TABLE
  2
DIMSTYLE
  5
A
330
0
100
AcDbSymbolTable
 70
     1
  0
DIMSTYLE
105
27
330
A
100
AcDbSymbolTableRecord
100
AcDbDimStyleTableRecord
  2
STANDARD
 70
     0
  3

  4

  5

  6

  7

 40
1.0
 41
0.18
 42
0.0625
 43
0.38
 44
0.18
 45
0.0
 46
0.0
 47
0.0
 48
0.0
140
0.18
141
0.09
142
0.0
143
25.4
144
1.0
145
0.0
146
1.0
147
0.09
 71
     0
 72
     0
 73
     1
 74
     1
 75
     0
 76
     0
 77
     0
 78
     0
170
     0
171
     2
172
     0
173
     0
174
     0
175
     0
176
     0
177
     0
178
     0
270
     2
271
     4
272
     4
273
     2
274
     2
340
11
275
     0
280
     0
281
     0
282
     0
283
     1
284
     0
285
     0
286
     0
287
     3
288
     0
  0
ENDTAB
  0
TABLE
  2
BLOCK_RECORD
  5
1
330
0
100
AcDbSymbolTable
 70
     1
  0
BLOCK_RECORD
  5
1F
330
1
100
AcDbSymbolTableRecord
100
AcDbBlockTableRecord
  2
*MODEL_SPACE
  0
BLOCK_RECORD
  5
1B
330
1
100
AcDbSymbolTableRecord
100
AcDbBlockTableRecord
  2
*PAPER_SPACE
  0
ENDTAB
  0
ENDSEC
  0
SECTION
  2
BLOCKS
  0
BLOCK
  5
20
330
1F
100
AcDbEntity
  8
0
100
AcDbBlockBegin
  2
*MODEL_SPACE
 70
     0
 10
0.0
 20
0.0
 30
0.0
  3
*MODEL_SPACE
  1

  0
ENDBLK
  5
21
330
1F
100
AcDbEntity
  8
0
100
AcDbBlockEnd
  0
BLOCK
  5
1C
330
1B
100
AcDbEntity
 67
     1
  8
0
100
AcDbBlockBegin
  2
*PAPER_SPACE
 70
     0
 10
0.0
 20
0.0
 30
0.0
  3
*PAPER_SPACE
  1

  0
ENDBLK
  5
1D
330
1B
100
AcDbEntity
 67
     1
  8
0
100
AcDbBlockEnd
  0
ENDSEC
  0
SECTION
  2
ENTITIES
  0
CIRCLE
  5
6F
330
1F
100
AcDbEntity
  8
LASERCUTS$INNER
100
AcDbCircle
 10
-289.4316439478762
 20
4.966145939024347
 30
0.0
 40
2.499999999999995
  0
CIRCLE
  5
70
330
1F
100
AcDbEntity
  8
LASERCUTS$INNER
100
AcDbCircle
 10
-303.3977898869006
 20
36.50000000000003
 30
0.0
 40
2.499999999999991
  0
CIRCLE
  5
71
330
1F
100
AcDbEntity
  8
LASERCUTS$INNER
100
AcDbCircle
 10
-337.8977898869006
 20
36.50000000000003
 30
0.0
 40
2.499999999999991
  0
CIRCLE
  5
72
330
1F
100
AcDbEntity
  8
LASERCUTS$INNER
100
AcDbCircle
 10
-340.9316492963795
 20
8.023658555481177
 30
0.0
 40
11.5
  0
POLYLINE
  5
74
330
1F
100
AcDbEntity
  8
LASERCUTS$OUTER
100
AcDb2dPolyline
 66
     1
 10
0.0
 20
0.0
 30
0.0
 70
     1
  0
VERTEX
  5
75
330
74
100
AcDbEntity
  8
LASERCUTS$OUTER
100
AcDbVertex
100
AcDb2dVertex
 10
-367.7816492963794
 20
43.00000000000003
 30
0.0
  0
VERTEX
  5
76
330
74
100
AcDbEntity
  8
LASERCUTS$OUTER
100
AcDbVertex
100
AcDb2dVertex
 10
-282.7816492963794
 20
43.00000000000003
 30
0.0
  0
VERTEX
  5
77
330
74
100
AcDbEntity
  8
LASERCUTS$OUTER
100
AcDbVertex
100
AcDb2dVertex
 10
-282.7816492963794
 20
-19.99999999999997
 30
0.0
  0
VERTEX
  5
78
330
74
100
AcDbEntity
  8
LASERCUTS$OUTER
100
AcDbVertex
100
AcDb2dVertex
 10
-367.7816492963794
 20
-19.99999999999997
 30
0.0
  0
SEQEND
  5
79
330
74
100
AcDbEntity
  8
LASERCUTS$OUTER
  0
CIRCLE
  5
7A
330
1F
100
AcDbEntity
  8
LASERCUTS$INNER
100
AcDbCircle
 10
-356.4316762633044
 20
23.52363152674695
 30
0.0
 40
1.500009721300132
  0
CIRCLE
  5
7B
330
1F
100
AcDbEntity
  8
LASERCUTS$INNER
100
AcDbCircle
 10
-325.4316596744363
 20
23.52364314263566
 30
0.0
 40
1.500009721300096
  0
CIRCLE
  5
7C
330
1F
100
AcDbEntity
  8
LASERCUTS$INNER
100
AcDbCircle
 10
-356.431616253726
 20
-7.476198566409636
 30
0.0
 40
1.500009721300102
  0
CIRCLE
  5
7D
330
1F
100
AcDbEntity
  8
LASERCUTS$INNER
100
AcDbCircle
 10
-325.4316345170276
 20
-7.476344164018223
 30
0.0
 40
1.500009721300082
  0
CIRCLE
  5
7E
330
1F
100
AcDbEntity
  8
LASERCUTS$INNER
100
AcDbCircle
 10
-244.2816492902598
 20
-196.9661459390243
 30
0.0
 40
2.499999999999943
  0
CIRCLE
  5
7F
330
1F
100
AcDbEntity
  8
LASERCUTS$INNER
100
AcDbCircle
 10
-244.2816492902598
 20
-53.03385406097561
 30
0.0
 40
2.499999999999957
  0
CIRCLE
  5
80
330
1F
100
AcDbEntity
  8
LASERCUTS$INNER
100
AcDbCircle
 10
-269.9977952272519
 20
-26.50000000000002
 30
0.0
 40
2.499999999999997
  0
CIRCLE
  5
81
330
1F
100
AcDbEntity
  8
LASERCUTS$INNER
100
AcDbCircle
 10
-296.2816492860382
 20
-53.03385406097559
 30
0.0
 40
2.499999999999979
  0
CIRCLE
  5
82
330
1F
100
AcDbEntity
  8
LASERCUTS$INNER
100
AcDbCircle
 10
-296.2816492860383
 20
-196.9661459390243
 30
0.0
 40
2.499999999999915
  0
POLYLINE
  5
83
330
1F
100
AcDbEntity
  8
LASERCUTS$OUTER
100
AcDb2dPolyline
 66
     1
 10
0.0
 20
0.0
 30
0.0
 70
     1
  0
VERTEX
  5
84
330
83
100
AcDbEntity
  8
LASERCUTS$OUTER
100
AcDbVertex
100
AcDb2dVertex
 10
-237.7816492884431
 20
-19.99999999999999
 30
0.0
  0
VERTEX
  5
85
330
83
100
AcDbEntity
  8
LASERCUTS$OUTER
100
AcDbVertex
100
AcDb2dVertex
 10
-302.781649292479
 20
-19.99999999999999
 30
0.0
  0
VERTEX
  5
86
330
83
100
AcDbEntity
  8
LASERCUTS$OUTER
100
AcDbVertex
100
AcDb2dVertex
 10
-302.7816492923436
 20
-230.0
 30
0.0
  0
VERTEX
  5
87
330
83
100
AcDbEntity
  8
LASERCUTS$OUTER
100
AcDbVertex
100
AcDb2dVertex
 10
-237.7816492884431
 20
-230.0
 30
0.0
  0
SEQEND
  5
88
330
83
100
AcDbEntity
  8
LASERCUTS$OUTER
  0
POLYLINE
  5
89
330
1F
100
AcDbEntity
  8
LASERCUTS$OUTER
100
AcDb2dPolyline
 66
     1
 10
0.0
 20
0.0
 30
0.0
 70
     1
  0
VERTEX
  5
8A
330
89
100
AcDbEntity
  8
LASERCUTS$OUTER
100
AcDbVertex
100
AcDb2dVertex
 10
-302.7816492923436
 20
-19.99999999999999
 30
0.0
  0
VERTEX
  5
8B
330
89
100
AcDbEntity
  8
LASERCUTS$OUTER
100
AcDbVertex
100
AcDb2dVertex
 10
-367.7816492963794
 20
-19.99999999999999
 30
0.0
  0
VERTEX
  5
8C
330
89
100
AcDbEntity
  8
LASERCUTS$OUTER
100
AcDbVertex
100
AcDb2dVertex
 10
-367.781649296244
 20
-230.0
 30
0.0
  0
VERTEX
  5
8D
330
89
100
AcDbEntity
  8
LASERCUTS$OUTER
100
AcDbVertex
100
AcDb2dVertex
 10
-302.7816492923436
 20
-230.0
 30
0.0
  0
SEQEND
  5
8E
330
89
100
AcDbEntity
  8
LASERCUTS$OUTER
  0
CIRCLE
  5
8F
330
1F
100
AcDbEntity
  8
LASERCUTS$INNER
100
AcDbCircle
 10
-334.9977952311523
 20
-26.50000000000002
 30
0.0
 40
2.5
  0
CIRCLE
  5
90
330
1F
100
AcDbEntity
  8
LASERCUTS$INNER
100
AcDbCircle
 10
-309.2816492941603
 20
-53.03385406097561
 30
0.0
 40
2.499999999999957
  0
CIRCLE
  5
91
330
1F
100
AcDbEntity
  8
LASERCUTS$INNER
100
AcDbCircle
 10
-309.2816492941603
 20
-196.9661459390244
 30
0.0
 40
2.499999999999972
  0
LINE
  5
92
330
1F
100
AcDbEntity
  8
LASERCUTS$OUTER
100
AcDbLine
 10
-907.5119190265139
 20
-230.0
 30
0.0
 11
-637.781649296244
 21
-230.0
 31
0.0
  0
LINE
  5
93
330
1F
100
AcDbEntity
  8
LASERCUTS$OUTER
100
AcDbLine
 10
-637.781649296244
 20
-230.0
 30
0.0
 11
-637.7816492962444
 21
35.00000000000002
 31
0.0
  0
POLYLINE
  5
94
330
1F
100
AcDbEntity
  8
LASERCUTS$OUTER
100
AcDb2dPolyline
 66
     1
 10
0.0
 20
0.0
 30
0.0
  0
VERTEX
  5
95
330
94
100
AcDbEntity
  8
LASERCUTS$OUTER
100
AcDbVertex
100
AcDb2dVertex
 10
-637.7816492962444
 20
35.00000000000002
 30
0.0
  0
VERTEX
  5
96
330
94
100
AcDbEntity
  8
LASERCUTS$OUTER
100
AcDbVertex
100
AcDb2dVertex
 10
-637.7839407733845
 20
35.22195948912284
 30
0.0
  0
VERTEX
  5
97
330
94
100
AcDbEntity
  8
LASERCUTS$OUTER
100
AcDbVertex
100
AcDb2dVertex
 10
-637.7908964694878
 20
35.44580254209782
 30
0.0
  0
VERTEX
  5
98
330
94
100
AcDbEntity
  8
LASERCUTS$OUTER
100
AcDbVertex
100
AcDb2dVertex
 10
-637.8026356062471
 20
35.67138254113865
 30
0.0
  0
VERTEX
  5
99
330
94
100
AcDbEntity
  8
LASERCUTS$OUTER
100
AcDbVertex
100
AcDb2dVertex
 10
-637.8192731419139
 20
35.89854457032145
 30
0.0
  0
VERTEX
  5
9A
330
94
100
AcDbEntity
  8
LASERCUTS$OUTER
100
AcDbVertex
100
AcDb2dVertex
 10
-637.8409192402069
 20
36.12712551269357
 30
0.0
  0
VERTEX
  5
9B
330
94
100
AcDbEntity
  8
LASERCUTS$OUTER
100
AcDbVertex
100
AcDb2dVertex
 10
-637.8676787330536
 20
36.35695418949749
 30
0.0
  0
VERTEX
  5
9C
330
94
100
AcDbEntity
  8
LASERCUTS$OUTER
100
AcDbVertex
100
AcDb2dVertex
 10
-637.8996505802115
 20
36.58785154317122
 30
0.0
  0
VERTEX
  5
9D
330
94
100
AcDbEntity
  8
LASERCUTS$OUTER
100
AcDbVertex
100
AcDb2dVertex
 10
-637.9369273290569
 20
36.81963086552655
 30
0.0
  0
VERTEX
  5
9E
330
94
100
AcDbEntity
  8
LASERCUTS$OUTER
100
AcDbVertex
100
AcDb2dVertex
 10
-637.9795945780373
 20
37.05209807220928
 30
0.0
  0
VERTEX
  5
9F
330
94
100
AcDbEntity
  8
LASERCUTS$OUTER
100
AcDbVertex
100
AcDb2dVertex
 10
-638.0277304474896
 20
37.28505202421615
 30
0.0
  0
VERTEX
  5
A0
330
94
100
AcDbEntity
  8
LASERCUTS$OUTER
100
AcDbVertex
100
AcDb2dVertex
 10
-638.0814050616805
 20
37.51828489687955
 30
0.0
  0
VERTEX
  5
A1
330
94
100
AcDbEntity
  8
LASERCUTS$OUTER
100
AcDbVertex
100
AcDb2dVertex
 10
-638.1406800460672
 20
37.75158259633882
 30
0.0
  0
VERTEX
  5
A2
330
94
100
AcDbEntity
  8
LASERCUTS$OUTER
100
AcDbVertex
100
AcDb2dVertex
 10
-638.2056080438713
 20
37.98472522309796
 30
0.0
  0
VERTEX
  5
A3
330
94
100
AcDbEntity
  8
LASERCUTS$OUTER
100
AcDbVertex
100
AcDb2dVertex
 10
-638.2762322561175
 20
38.21748758182792
 30
0.0
  0
VERTEX
  5
A4
330
94
100
AcDbEntity
  8
LASERCUTS$OUTER
100
AcDbVertex
100
AcDb2dVertex
 10
-638.3525860092998
 20
38.44963973611274
 30
0.0
  0
VERTEX
  5
A5
330
94
100
AcDbEntity
  8
LASERCUTS$OUTER
100
AcDbVertex
100
AcDb2dVertex
 10
-638.4346923548043
 20
38.68094760636742
 30
0.0
  0
VERTEX
  5
A6
330
94
100
AcDbEntity
  8
LASERCUTS$OUTER
100
AcDbVertex
100
AcDb2dVertex
 10
-638.5225637041324
 20
38.9111736086783
 30
0.0
  0
VERTEX
  5
A7
330
94
100
AcDbEntity
  8
LASERCUTS$OUTER
100
AcDbVertex
100
AcDb2dVertex
 10
-638.6162015038359
 20
39.1400773318395
 30
0.0
  0
VERTEX
  5
A8
330
94
100
AcDbEntity
  8
LASERCUTS$OUTER
100
AcDbVertex
100
AcDb2dVertex
 10
-638.7155959538787
 20
39.36741624939013
 30
0.0
  0
VERTEX
  5
A9
330
94
100
AcDbEntity
  8
LASERCUTS$OUTER
100
AcDbVertex
100
AcDb2dVertex
 10
-638.8207257729053
 20
39.59294646300194
 30
0.0
  0
VERTEX
  5
AA
330
94
100
AcDbEntity
  8
LASERCUTS$OUTER
100
AcDbVertex
100
AcDb2dVertex
 10
-638.9315580135973
 20
39.81642347313517
 30
0.0
  0
VERTEX
  5
AB
330
94
100
AcDbEntity
  8
LASERCUTS$OUTER
100
AcDbVertex
100
AcDb2dVertex
 10
-639.0480479309567
 20
40.03760297247837
 30
0.0
  0
VERTEX
  5
AC
330
94
100
AcDbEntity
  8
LASERCUTS$OUTER
100
AcDbVertex
100
AcDb2dVertex
 10
-639.1701389059618
 20
40.25624165732193
 30
0.0
  0
VERTEX
  5
AD
330
94
100
AcDbEntity
  8
LASERCUTS$OUTER
100
AcDbVertex
100
AcDb2dVertex
 10
-639.2977624266036
 20
40.47209805169525
 30
0.0
  0
VERTEX
  5
AE
330
94
100
AcDbEntity
  8
LASERCUTS$OUTER
100
AcDbVertex
100
AcDb2dVertex
 10
-639.4308381278387
 20
40.68493333882673
 30
0.0
  0
VERTEX
  5
AF
330
94
100
AcDbEntity
  8
LASERCUTS$OUTER
100
AcDbVertex
100
AcDb2dVertex
 10
-639.5692738914828
 20
40.89451219427293
 30
0.0
  0
VERTEX
  5
B0
330
94
100
AcDbEntity
  8
LASERCUTS$OUTER
100
AcDbVertex
100
AcDb2dVertex
 10
-639.7129660065365
 20
41.10060361491143
 30
0.0
  0
VERTEX
  5
B1
330
94
100
AcDbEntity
  8
LASERCUTS$OUTER
100
AcDbVertex
100
AcDb2dVertex
 10
-639.8617993898765
 20
41.30298173790674
 30
0.0
  0
VERTEX
  5
B2
330
94
100
AcDbEntity
  8
LASERCUTS$OUTER
100
AcDbVertex
100
AcDb2dVertex
 10
-640.0156478666819
 20
41.50142664374224
 30
0.0
  0
VERTEX
  5
B3
330
94
100
AcDbEntity
  8
LASERCUTS$OUTER
100
AcDbVertex
100
AcDb2dVertex
 10
-640.1743745093944
 20
41.69572513746523
 30
0.0
  0
VERTEX
  5
B4
330
94
100
AcDbEntity
  8
LASERCUTS$OUTER
100
AcDbVertex
100
AcDb2dVertex
 10
-640.3378320334424
 20
41.88567150241826
 30
0.0
  0
VERTEX
  5
B5
330
94
100
AcDbEntity
  8
LASERCUTS$OUTER
100
AcDbVertex
100
AcDb2dVertex
 10
-640.5058632474129
 20
42.07106822092706
 30
0.0
  0
VERTEX
  5
B6
330
94
100
AcDbEntity
  8
LASERCUTS$OUTER
100
AcDbVertex
100
AcDb2dVertex
 10
-640.6783015548235
 20
42.2517266566802
 30
0.0
  0
VERTEX
  5
B7
330
94
100
AcDbEntity
  8
LASERCUTS$OUTER
100
AcDbVertex
100
AcDb2dVertex
 10
-640.8549715041436
 20
42.42746769386721
 30
0.0
  0
VERTEX
  5
B8
330
94
100
AcDbEntity
  8
LASERCUTS$OUTER
100
AcDbVertex
100
AcDb2dVertex
 10
-641.0356893832595
 20
42.59812232853353
 30
0.0
  0
VERTEX
  5
B9
330
94
100
AcDbEntity
  8
LASERCUTS$OUTER
100
AcDbVertex
100
AcDb2dVertex
 10
-641.2202638541615
 20
42.76353220805774
 30
0.0
  0
VERTEX
  5
BA
330
94
100
AcDbEntity
  8
LASERCUTS$OUTER
100
AcDbVertex
100
AcDb2dVertex
 10
-641.4084966232563
 20
42.92355011515244
 30
0.0
  0
VERTEX
  5
BB
330
94
100
AcDbEntity
  8
LASERCUTS$OUTER
100
AcDbVertex
100
AcDb2dVertex
 10
-641.6001831424171
 20
43.07804039332647
 30
0.0
  0
VERTEX
  5
BC
330
94
100
AcDbEntity
  8
LASERCUTS$OUTER
100
AcDbVertex
100
AcDb2dVertex
 10
-641.7951133356247
 20
43.22687931131562
 30
0.0
  0
VERTEX
  5
BD
330
94
100
AcDbEntity
  8
LASERCUTS$OUTER
100
AcDbVertex
100
AcDb2dVertex
 10
-641.9930723458681
 20
43.3699553645817
 30
0.0
  0
VERTEX
  5
BE
330
94
100
AcDbEntity
  8
LASERCUTS$OUTER
100
AcDbVertex
100
AcDb2dVertex
 10
-642.1938412968707
 20
43.50716951258794
 30
0.0
  0
VERTEX
  5
BF
330
94
100
AcDbEntity
  8
LASERCUTS$OUTER
100
AcDbVertex
100
AcDb2dVertex
 10
-642.397198064139
 20
43.63843535117132
 30
0.0
  0
VERTEX
  5
C0
330
94
100
AcDbEntity
  8
LASERCUTS$OUTER
100
AcDbVertex
100
AcDb2dVertex
 10
-642.6029180498592
 20
43.76367921994242
 30
0.0
  0
VERTEX
  5
C1
330
94
100
AcDbEntity
  8
LASERCUTS$OUTER
100
AcDbVertex
100
AcDb2dVertex
 10
-642.810774956242
 20
43.88284024523931
 30
0.0
  0
VERTEX
  5
C2
330
94
100
AcDbEntity
  8
LASERCUTS$OUTER
100
AcDbVertex
100
AcDb2dVertex
 10
-643.0205415520553
 20
43.99587031973856
 30
0.0
  0
VERTEX
  5
C3
330
94
100
AcDbEntity
  8
LASERCUTS$OUTER
100
AcDbVertex
100
AcDb2dVertex
 10
-643.2319904272867
 20
44.10273402037253
 30
0.0
  0
VERTEX
  5
C4
330
94
100
AcDbEntity
  8
LASERCUTS$OUTER
100
AcDbVertex
100
AcDb2dVertex
 10
-643.4448947311234
 20
44.20340846671336
 30
0.0
  0
VERTEX
  5
C5
330
94
100
AcDbEntity
  8
LASERCUTS$OUTER
100
AcDbVertex
100
AcDb2dVertex
 10
-643.6590288887435
 20
44.29788312245342
 30
0.0
  0
VERTEX
  5
C6
330
94
100
AcDbEntity
  8
LASERCUTS$OUTER
100
AcDbVertex
100
AcDb2dVertex
 10
-643.874169292742
 20
44.38615954303286
 30
0.0
  0
VERTEX
  5
C7
330
94
100
AcDbEntity
  8
LASERCUTS$OUTER
100
AcDbVertex
100
AcDb2dVertex
 10
-644.0900949654
 20
44.46825107283678
 30
0.0
  0
VERTEX
  5
C8
330
94
100
AcDbEntity
  8
LASERCUTS$OUTER
100
AcDbVertex
100
AcDb2dVertex
 10
-644.3065881883989
 20
44.54418249570002
 30
0.0
  0
VERTEX
  5
C9
330
94
100
AcDbEntity
  8
LASERCUTS$OUTER
100
AcDbVertex
100
AcDb2dVertex
 10
-644.5234350970062
 20
44.61398964271819
 30
0.0
  0
VERTEX
  5
CA
330
94
100
AcDbEntity
  8
LASERCUTS$OUTER
100
AcDbVertex
100
AcDb2dVertex
 10
-644.7404262362024
 20
44.67771896156725
 30
0.0
  0
VERTEX
  5
CB
330
94
100
AcDbEntity
  8
LASERCUTS$OUTER
100
AcDbVertex
100
AcDb2dVertex
 10
-644.9573570766516
 20
44.73542705167986
 30
0.0
  0
VERTEX
  5
CC
330
94
100
AcDbEntity
  8
LASERCUTS$OUTER
100
AcDbVertex
100
AcDb2dVertex
 10
-645.1740284888695
 20
44.78718016971784
 30
0.0
  0
VERTEX
  5
CD
330
94
100
AcDbEntity
  8
LASERCUTS$OUTER
100
AcDbVertex
100
AcDb2dVertex
 10
-645.3902471743796
 20
44.83305370981737
 30
0.0
  0
VERTEX
  5
CE
330
94
100
AcDbEntity
  8
LASERCUTS$OUTER
100
AcDbVertex
100
AcDb2dVertex
 10
-645.6058260530756
 20
44.87313166306931
 30
0.0
  0
VERTEX
  5
CF
330
94
100
AcDbEntity
  8
LASERCUTS$OUTER
100
AcDbVertex
100
AcDb2dVertex
 10
-645.8205846064129
 20
44.90750606063587
 30
0.0
  0
VERTEX
  5
D0
330
94
100
AcDbEntity
  8
LASERCUTS$OUTER
100
AcDbVertex
100
AcDb2dVertex
 10
-646.0343491764536
 20
44.93627640479983
 30
0.0
  0
VERTEX
  5
D1
330
94
100
AcDbEntity
  8
LASERCUTS$OUTER
100
AcDbVertex
100
AcDb2dVertex
 10
-646.2469532211416
 20
44.95954909209819
 30
0.0
  0
VERTEX
  5
D2
330
94
100
AcDbEntity
  8
LASERCUTS$OUTER
100
AcDbVertex
100
AcDb2dVertex
 10
-646.458237526532
 20
44.97743683251336
 30
0.0
  0
VERTEX
  5
D3
330
94
100
AcDbEntity
  8
LASERCUTS$OUTER
100
AcDbVertex
100
AcDb2dVertex
 10
-646.6680503769998
 20
44.99005806848663
 30
0.0
  0
VERTEX
  5
D4
330
94
100
AcDbEntity
  8
LASERCUTS$OUTER
100
AcDbVertex
100
AcDb2dVertex
 10
-646.8762476847315
 20
44.99753639728498
 30
0.0
  0
VERTEX
  5
D5
330
94
100
AcDbEntity
  8
LASERCUTS$OUTER
100
AcDbVertex
100
AcDb2dVertex
 10
-647.0826930800465
 20
45.0
 30
0.0
  0
SEQEND
  5
D6
330
94
100
AcDbEntity
  8
LASERCUTS$OUTER
  0
LINE
  5
D7
330
1F
100
AcDbEntity
  8
LASERCUTS$OUTER
100
AcDbLine
 10
-647.0826930800465
 20
45.0
 30
0.0
 11
-898.2108752427114
 21
45.00000000000001
 31
0.0
  0
POLYLINE
  5
D8
330
1F
100
AcDbEntity
  8
LASERCUTS$OUTER
100
AcDb2dPolyline
 66
     1
 10
0.0
 20
0.0
 30
0.0
  0
VERTEX
  5
D9
330
D8
100
AcDbEntity
  8
LASERCUTS$OUTER
100
AcDbVertex
100
AcDb2dVertex
 10
-898.2108752427114
 20
45.00000000000001
 30
0.0
  0
VERTEX
  5
DA
330
D8
100
AcDbEntity
  8
LASERCUTS$OUTER
100
AcDbVertex
100
AcDb2dVertex
 10
-898.4173206380265
 20
44.997536397285
 30
0.0
  0
VERTEX
  5
DB
330
D8
100
AcDbEntity
  8
LASERCUTS$OUTER
100
AcDbVertex
100
AcDb2dVertex
 10
-898.6255179457581
 20
44.99005806848664
 30
0.0
  0
VERTEX
  5
DC
330
D8
100
AcDbEntity
  8
LASERCUTS$OUTER
100
AcDbVertex
100
AcDb2dVertex
 10
-898.8353307962259
 20
44.97743683251338
 30
0.0
  0
VERTEX
  5
DD
330
D8
100
AcDbEntity
  8
LASERCUTS$OUTER
100
AcDbVertex
100
AcDb2dVertex
 10
-899.0466151016165
 20
44.95954909209821
 30
0.0
  0
VERTEX
  5
DE
330
D8
100
AcDbEntity
  8
LASERCUTS$OUTER
100
AcDbVertex
100
AcDb2dVertex
 10
-899.2592191463043
 20
44.93627640479984
 30
0.0
  0
VERTEX
  5
DF
330
D8
100
AcDbEntity
  8
LASERCUTS$OUTER
100
AcDbVertex
100
AcDb2dVertex
 10
-899.4729837163452
 20
44.90750606063589
 30
0.0
  0
VERTEX
  5
E0
330
D8
100
AcDbEntity
  8
LASERCUTS$OUTER
100
AcDbVertex
100
AcDb2dVertex
 10
-899.6877422696825
 20
44.87313166306933
 30
0.0
  0
VERTEX
  5
E1
330
D8
100
AcDbEntity
  8
LASERCUTS$OUTER
100
AcDbVertex
100
AcDb2dVertex
 10
-899.9033211483784
 20
44.83305370981739
 30
0.0
  0
VERTEX
  5
E2
330
D8
100
AcDbEntity
  8
LASERCUTS$OUTER
100
AcDbVertex
100
AcDb2dVertex
 10
-900.1195398338887
 20
44.78718016971786
 30
0.0
  0
VERTEX
  5
E3
330
D8
100
AcDbEntity
  8
LASERCUTS$OUTER
100
AcDbVertex
100
AcDb2dVertex
 10
-900.3362112461064
 20
44.73542705167988
 30
0.0
  0
VERTEX
  5
E4
330
D8
100
AcDbEntity
  8
LASERCUTS$OUTER
100
AcDbVertex
100
AcDb2dVertex
 10
-900.5531420865556
 20
44.67771896156726
 30
0.0
  0
VERTEX
  5
E5
330
D8
100
AcDbEntity
  8
LASERCUTS$OUTER
100
AcDbVertex
100
AcDb2dVertex
 10
-900.770133225752
 20
44.6139896427182
 30
0.0
  0
VERTEX
  5
E6
330
D8
100
AcDbEntity
  8
LASERCUTS$OUTER
100
AcDbVertex
100
AcDb2dVertex
 10
-900.9869801343593
 20
44.54418249570003
 30
0.0
  0
VERTEX
  5
E7
330
D8
100
AcDbEntity
  8
LASERCUTS$OUTER
100
AcDbVertex
100
AcDb2dVertex
 10
-901.2034733573581
 20
44.4682510728368
 30
0.0
  0
VERTEX
  5
E8
330
D8
100
AcDbEntity
  8
LASERCUTS$OUTER
100
AcDbVertex
100
AcDb2dVertex
 10
-901.4193990300163
 20
44.38615954303287
 30
0.0
  0
VERTEX
  5
E9
330
D8
100
AcDbEntity
  8
LASERCUTS$OUTER
100
AcDbVertex
100
AcDb2dVertex
 10
-901.6345394340145
 20
44.29788312245343
 30
0.0
  0
VERTEX
  5
EA
330
D8
100
AcDbEntity
  8
LASERCUTS$OUTER
100
AcDbVertex
100
AcDb2dVertex
 10
-901.8486735916347
 20
44.20340846671339
 30
0.0
  0
VERTEX
  5
EB
330
D8
100
AcDbEntity
  8
LASERCUTS$OUTER
100
AcDbVertex
100
AcDb2dVertex
 10
-902.0615778954713
 20
44.10273402037254
 30
0.0
  0
VERTEX
  5
EC
330
D8
100
AcDbEntity
  8
LASERCUTS$OUTER
100
AcDbVertex
100
AcDb2dVertex
 10
-902.2730267707025
 20
43.99587031973856
 30
0.0
  0
VERTEX
  5
ED
330
D8
100
AcDbEntity
  8
LASERCUTS$OUTER
100
AcDbVertex
100
AcDb2dVertex
 10
-902.4827933665163
 20
43.88284024523932
 30
0.0
  0
VERTEX
  5
EE
330
D8
100
AcDbEntity
  8
LASERCUTS$OUTER
100
AcDbVertex
100
AcDb2dVertex
 10
-902.690650272899
 20
43.76367921994242
 30
0.0
  0
VERTEX
  5
EF
330
D8
100
AcDbEntity
  8
LASERCUTS$OUTER
100
AcDbVertex
100
AcDb2dVertex
 10
-902.8963702586193
 20
43.63843535117133
 30
0.0
  0
VERTEX
  5
F0
330
D8
100
AcDbEntity
  8
LASERCUTS$OUTER
100
AcDbVertex
100
AcDb2dVertex
 10
-903.0997270258873
 20
43.50716951258793
 30
0.0
  0
VERTEX
  5
F1
330
D8
100
AcDbEntity
  8
LASERCUTS$OUTER
100
AcDbVertex
100
AcDb2dVertex
 10
-903.30049597689
 20
43.3699553645817
 30
0.0
  0
VERTEX
  5
F2
330
D8
100
AcDbEntity
  8
LASERCUTS$OUTER
100
AcDbVertex
100
AcDb2dVertex
 10
-903.4984549871335
 20
43.22687931131561
 30
0.0
  0
VERTEX
  5
F3
330
D8
100
AcDbEntity
  8
LASERCUTS$OUTER
100
AcDbVertex
100
AcDb2dVertex
 10
-903.693385180341
 20
43.07804039332646
 30
0.0
  0
VERTEX
  5
F4
330
D8
100
AcDbEntity
  8
LASERCUTS$OUTER
100
AcDbVertex
100
AcDb2dVertex
 10
-903.8850716995021
 20
42.92355011515242
 30
0.0
  0
VERTEX
  5
F5
330
D8
100
AcDbEntity
  8
LASERCUTS$OUTER
100
AcDbVertex
100
AcDb2dVertex
 10
-904.0733044685966
 20
42.76353220805773
 30
0.0
  0
VERTEX
  5
F6
330
D8
100
AcDbEntity
  8
LASERCUTS$OUTER
100
AcDbVertex
100
AcDb2dVertex
 10
-904.2578789394985
 20
42.59812232853351
 30
0.0
  0
VERTEX
  5
F7
330
D8
100
AcDbEntity
  8
LASERCUTS$OUTER
100
AcDbVertex
100
AcDb2dVertex
 10
-904.4385968186149
 20
42.42746769386719
 30
0.0
  0
VERTEX
  5
F8
330
D8
100
AcDbEntity
  8
LASERCUTS$OUTER
100
AcDbVertex
100
AcDb2dVertex
 10
-904.6152667679347
 20
42.25172665668017
 30
0.0
  0
VERTEX
  5
F9
330
D8
100
AcDbEntity
  8
LASERCUTS$OUTER
100
AcDbVertex
100
AcDb2dVertex
 10
-904.7877050753455
 20
42.07106822092703
 30
0.0
  0
VERTEX
  5
FA
330
D8
100
AcDbEntity
  8
LASERCUTS$OUTER
100
AcDbVertex
100
AcDb2dVertex
 10
-904.9557362893161
 20
41.88567150241824
 30
0.0
  0
VERTEX
  5
FB
330
D8
100
AcDbEntity
  8
LASERCUTS$OUTER
100
AcDbVertex
100
AcDb2dVertex
 10
-905.1191938133642
 20
41.6957251374652
 30
0.0
  0
VERTEX
  5
FC
330
D8
100
AcDbEntity
  8
LASERCUTS$OUTER
100
AcDbVertex
100
AcDb2dVertex
 10
-905.2779204560765
 20
41.50142664374221
 30
0.0
  0
VERTEX
  5
FD
330
D8
100
AcDbEntity
  8
LASERCUTS$OUTER
100
AcDbVertex
100
AcDb2dVertex
 10
-905.4317689328819
 20
41.30298173790669
 30
0.0
  0
VERTEX
  5
FE
330
D8
100
AcDbEntity
  8
LASERCUTS$OUTER
100
AcDbVertex
100
AcDb2dVertex
 10
-905.580602316222
 20
41.10060361491139
 30
0.0
  0
VERTEX
  5
FF
330
D8
100
AcDbEntity
  8
LASERCUTS$OUTER
100
AcDbVertex
100
AcDb2dVertex
 10
-905.7242944312754
 20
40.89451219427289
 30
0.0
  0
VERTEX
  5
100
330
D8
100
AcDbEntity
  8
LASERCUTS$OUTER
100
AcDbVertex
100
AcDb2dVertex
 10
-905.8627301949198
 20
40.68493333882669
 30
0.0
  0
VERTEX
  5
101
330
D8
100
AcDbEntity
  8
LASERCUTS$OUTER
100
AcDbVertex
100
AcDb2dVertex
 10
-905.9958058961546
 20
40.47209805169518
 30
0.0
  0
VERTEX
  5
102
330
D8
100
AcDbEntity
  8
LASERCUTS$OUTER
100
AcDbVertex
100
AcDb2dVertex
 10
-906.1234294167964
 20
40.25624165732187
 30
0.0
  0
VERTEX
  5
103
330
D8
100
AcDbEntity
  8
LASERCUTS$OUTER
100
AcDbVertex
100
AcDb2dVertex
 10
-906.2455203918015
 20
40.03760297247831
 30
0.0
  0
VERTEX
  5
104
330
D8
100
AcDbEntity
  8
LASERCUTS$OUTER
100
AcDbVertex
100
AcDb2dVertex
 10
-906.3620103091608
 20
39.8164234731351
 30
0.0
  0
VERTEX
  5
105
330
D8
100
AcDbEntity
  8
LASERCUTS$OUTER
100
AcDbVertex
100
AcDb2dVertex
 10
-906.4728425498529
 20
39.59294646300187
 30
0.0
  0
VERTEX
  5
106
330
D8
100
AcDbEntity
  8
LASERCUTS$OUTER
100
AcDbVertex
100
AcDb2dVertex
 10
-906.5779723688795
 20
39.36741624939008
 30
0.0
  0
VERTEX
  5
107
330
D8
100
AcDbEntity
  8
LASERCUTS$OUTER
100
AcDbVertex
100
AcDb2dVertex
 10
-906.6773668189225
 20
39.14007733183944
 30
0.0
  0
VERTEX
  5
108
330
D8
100
AcDbEntity
  8
LASERCUTS$OUTER
100
AcDbVertex
100
AcDb2dVertex
 10
-906.7710046186259
 20
38.91117360867823
 30
0.0
  0
VERTEX
  5
109
330
D8
100
AcDbEntity
  8
LASERCUTS$OUTER
100
AcDbVertex
100
AcDb2dVertex
 10
-906.8588759679542
 20
38.68094760636737
 30
0.0
  0
VERTEX
  5
10A
330
D8
100
AcDbEntity
  8
LASERCUTS$OUTER
100
AcDbVertex
100
AcDb2dVertex
 10
-906.9409823134587
 20
38.4496397361127
 30
0.0
  0
VERTEX
  5
10B
330
D8
100
AcDbEntity
  8
LASERCUTS$OUTER
100
AcDbVertex
100
AcDb2dVertex
 10
-907.017336066641
 20
38.21748758182787
 30
0.0
  0
VERTEX
  5
10C
330
D8
100
AcDbEntity
  8
LASERCUTS$OUTER
100
AcDbVertex
100
AcDb2dVertex
 10
-907.0879602788871
 20
37.98472522309791
 30
0.0
  0
VERTEX
  5
10D
330
D8
100
AcDbEntity
  8
LASERCUTS$OUTER
100
AcDbVertex
100
AcDb2dVertex
 10
-907.1528882766912
 20
37.75158259633877
 30
0.0
  0
VERTEX
  5
10E
330
D8
100
AcDbEntity
  8
LASERCUTS$OUTER
100
AcDbVertex
100
AcDb2dVertex
 10
-907.2121632610779
 20
37.5182848968795
 30
0.0
  0
VERTEX
  5
10F
330
D8
100
AcDbEntity
  8
LASERCUTS$OUTER
100
AcDbVertex
100
AcDb2dVertex
 10
-907.265837875269
 20
37.2850520242161
 30
0.0
  0
VERTEX
  5
110
330
D8
100
AcDbEntity
  8
LASERCUTS$OUTER
100
AcDbVertex
100
AcDb2dVertex
 10
-907.3139737447211
 20
37.05209807220922
 30
0.0
  0
VERTEX
  5
111
330
D8
100
AcDbEntity
  8
LASERCUTS$OUTER
100
AcDbVertex
100
AcDb2dVertex
 10
-907.3566409937015
 20
36.81963086552651
 30
0.0
  0
VERTEX
  5
112
330
D8
100
AcDbEntity
  8
LASERCUTS$OUTER
100
AcDbVertex
100
AcDb2dVertex
 10
-907.3939177425467
 20
36.58785154317118
 30
0.0
  0
VERTEX
  5
113
330
D8
100
AcDbEntity
  8
LASERCUTS$OUTER
100
AcDbVertex
100
AcDb2dVertex
 10
-907.4258895897049
 20
36.35695418949745
 30
0.0
  0
VERTEX
  5
114
330
D8
100
AcDbEntity
  8
LASERCUTS$OUTER
100
AcDbVertex
100
AcDb2dVertex
 10
-907.4526490825514
 20
36.12712551269353
 30
0.0
  0
VERTEX
  5
115
330
D8
100
AcDbEntity
  8
LASERCUTS$OUTER
100
AcDbVertex
100
AcDb2dVertex
 10
-907.4742951808444
 20
35.89854457032141
 30
0.0
  0
VERTEX
  5
116
330
D8
100
AcDbEntity
  8
LASERCUTS$OUTER
100
AcDbVertex
100
AcDb2dVertex
 10
-907.4909327165112
 20
35.67138254113863
 30
0.0
  0
VERTEX
  5
117
330
D8
100
AcDbEntity
  8
LASERCUTS$OUTER
100
AcDbVertex
100
AcDb2dVertex
 10
-907.5026718532705
 20
35.4458025420978
 30
0.0
  0
VERTEX
  5
118
330
D8
100
AcDbEntity
  8
LASERCUTS$OUTER
100
AcDbVertex
100
AcDb2dVertex
 10
-907.5096275493737
 20
35.22195948912284
 30
0.0
  0
VERTEX
  5
119
330
D8
100
AcDbEntity
  8
LASERCUTS$OUTER
100
AcDbVertex
100
AcDb2dVertex
 10
-907.511919026514
 20
35.00000000000002
 30
0.0
  0
SEQEND
  5
11A
330
D8
100
AcDbEntity
  8
LASERCUTS$OUTER
  0
LINE
  5
11B
330
1F
100
AcDbEntity
  8
LASERCUTS$OUTER
100
AcDbLine
 10
-907.5119190265139
 20
35.00000000000001
 30
0.0
 11
-907.5119190265139
 21
-230.0
 31
0.0
  0
CIRCLE
  5
11C
330
1F
100
AcDbEntity
  8
LASERCUTS$INNER
100
AcDbCircle
 10
-649.031784161379
 20
-57.06770812195143
 30
0.0
 40
2.499999999999935
  0
CIRCLE
  5
11D
330
1F
100
AcDbEntity
  8
LASERCUTS$INNER
100
AcDbCircle
 10
-649.0317841613789
 20
-38.99999999999993
 30
0.0
 40
2.500000000000016
  0
CIRCLE
  5
11E
330
1F
100
AcDbEntity
  8
LASERCUTS$INNER
100
AcDbCircle
 10
-666.6467841613785
 20
-21.38499999999999
 30
0.0
 40
2.499999999999866
  0
CIRCLE
  5
11F
330
1F
100
AcDbEntity
  8
LASERCUTS$INNER
100
AcDbCircle
 10
-684.7144922833298
 20
-21.38499999999968
 30
0.0
 40
2.500000000000023
  0
CIRCLE
  5
120
330
1F
100
AcDbEntity
  8
LASERCUTS$INNER
100
AcDbCircle
 10
-684.7144922833298
 20
-218.6150000000004
 30
0.0
 40
2.500000000000073
  0
CIRCLE
  5
121
330
1F
100
AcDbEntity
  8
LASERCUTS$INNER
100
AcDbCircle
 10
-666.6467841613784
 20
-218.615
 30
0.0
 40
2.499999999999922
  0
CIRCLE
  5
122
330
1F
100
AcDbEntity
  8
LASERCUTS$INNER
100
AcDbCircle
 10
-649.0317841613788
 20
-201.0000000000001
 30
0.0
 40
2.499999999999935
  0
CIRCLE
  5
123
330
1F
100
AcDbEntity
  8
LASERCUTS$INNER
100
AcDbCircle
 10
-649.0317841613792
 20
-182.9322918780486
 30
0.0
 40
2.500000000000049
  0
CIRCLE
  5
124
330
1F
100
AcDbEntity
  8
LASERCUTS$INNER
100
AcDbCircle
 10
-787.9838438982756
 20
-21.43426254621301
 30
0.0
 40
1.499999999999998
  0
CIRCLE
  5
125
330
1F
100
AcDbEntity
  8
LASERCUTS$INNER
100
AcDbCircle
 10
-845.9838438982757
 20
-21.43426254621298
 30
0.0
 40
1.50000000000009
  0
CIRCLE
  5
126
330
1F
100
AcDbEntity
  8
LASERCUTS$INNER
100
AcDbCircle
 10
-845.9838438982756
 20
-70.434262546213
 30
0.0
 40
1.500000000000004
  0
CIRCLE
  5
127
330
1F
100
AcDbEntity
  8
LASERCUTS$INNER
100
AcDbCircle
 10
-787.9838438982755
 20
-70.434262546213
 30
0.0
 40
1.499999999999941
  0
CIRCLE
  5
128
330
1F
100
AcDbEntity
  8
LASERCUTS$INNER
100
AcDbCircle
 10
-860.5790760394281
 20
-21.38499999999971
 30
0.0
 40
2.499999999999997
  0
CIRCLE
  5
129
330
1F
100
AcDbEntity
  8
LASERCUTS$INNER
100
AcDbCircle
 10
-878.6467841613795
 20
-21.38499999999993
 30
0.0
 40
2.49999999999992
  0
CIRCLE
  5
12A
330
1F
100
AcDbEntity
  8
LASERCUTS$INNER
100
AcDbCircle
 10
-896.261784161379
 20
-38.9999999999999
 30
0.0
 40
2.500000000000029
  0
CIRCLE
  5
12B
330
1F
100
AcDbEntity
  8
LASERCUTS$INNER
100
AcDbCircle
 10
-896.261784161379
 20
-57.0677081219514
 30
0.0
 40
2.499999999999847
  0
CIRCLE
  5
12C
330
1F
100
AcDbEntity
  8
LASERCUTS$INNER
100
AcDbCircle
 10
-896.2617841613788
 20
-182.9322918780486
 30
0.0
 40
2.499999999999948
  0
CIRCLE
  5
12D
330
1F
100
AcDbEntity
  8
LASERCUTS$INNER
100
AcDbCircle
 10
-896.2617841613791
 20
-201.0000000000001
 30
0.0
 40
2.499999999999948
  0
CIRCLE
  5
12E
330
1F
100
AcDbEntity
  8
LASERCUTS$INNER
100
AcDbCircle
 10
-878.6467841613795
 20
-218.6150000000001
 30
0.0
 40
2.499999999999945
  0
CIRCLE
  5
12F
330
1F
100
AcDbEntity
  8
LASERCUTS$INNER
100
AcDbCircle
 10
-860.5790760394281
 20
-218.6150000000003
 30
0.0
 40
2.500000000000023
  0
CIRCLE
  5
130
330
1F
100
AcDbEntity
  8
LASERCUTS$INNER
100
AcDbCircle
 10
-747.9944748691248
 20
-78.99999465149676
 30
0.0
 40
2.499999999999922
  0
CIRCLE
  5
131
330
1F
100
AcDbEntity
  8
LASERCUTS$INNER
100
AcDbCircle
 10
-747.9944748691245
 20
-60.93228652954522
 30
0.0
 40
2.500000000000023
  0
CIRCLE
  5
132
330
1F
100
AcDbEntity
  8
LASERCUTS$INNER
100
AcDbCircle
 10
-747.9944748691247
 20
-26.43228652954528
 30
0.0
 40
2.500000000000023
  0
CIRCLE
  5
133
330
1F
100
AcDbEntity
  8
LASERCUTS$INNER
100
AcDbCircle
 10
-747.9944748691249
 20
-44.49999465149679
 30
0.0
 40
2.50000000000001
  0
CIRCLE
  5
134
330
1F
100
AcDbEntity
  8
LASERCUTS$INNER
100
AcDbCircle
 10
-502.7816909873935
 20
-24.0
 30
0.0
 40
1.5
  0
CIRCLE
  5
135
330
1F
100
AcDbEntity
  8
LASERCUTS$INNER
100
AcDbCircle
 10
-590.7139411742932
 20
-21.38499999999968
 30
0.0
 40
2.500000000000023
  0
CIRCLE
  5
136
330
1F
100
AcDbEntity
  8
LASERCUTS$INNER
100
AcDbCircle
 10
-608.7816492962446
 20
-21.38499999999997
 30
0.0
 40
2.499999999999944
  0
CIRCLE
  5
137
330
1F
100
AcDbEntity
  8
LASERCUTS$INNER
100
AcDbCircle
 10
-626.396649296244
 20
-38.99999999999993
 30
0.0
 40
2.500000000000016
  0
CIRCLE
  5
138
330
1F
100
AcDbEntity
  8
LASERCUTS$INNER
100
AcDbCircle
 10
-626.396649296244
 20
-57.06770812195137
 30
0.0
 40
2.49999999999986
  0
CIRCLE
  5
139
330
1F
100
AcDbEntity
  8
LASERCUTS$INNER
100
AcDbCircle
 10
-626.396649296244
 20
-182.9322918780487
 30
0.0
 40
2.499999999999873
  0
CIRCLE
  5
13A
330
1F
100
AcDbEntity
  8
LASERCUTS$INNER
100
AcDbCircle
 10
-626.3966492962442
 20
-201.0000000000001
 30
0.0
 40
2.499999999999935
  0
CIRCLE
  5
13B
330
1F
100
AcDbEntity
  8
LASERCUTS$INNER
100
AcDbCircle
 10
-608.7816492962445
 20
-218.615
 30
0.0
 40
2.499999999999819
  0
CIRCLE
  5
13C
330
1F
100
AcDbEntity
  8
LASERCUTS$INNER
100
AcDbCircle
 10
-590.7139411742932
 20
-218.6150000000003
 30
0.0
 40
2.500000000000023
  0
CIRCLE
  5
13D
330
1F
100
AcDbEntity
  8
LASERCUTS$INNER
100
AcDbCircle
 10
-379.1666492962443
 20
-57.06770812195148
 30
0.0
 40
2.50000000000001
  0
CIRCLE
  5
13E
330
1F
100
AcDbEntity
  8
LASERCUTS$INNER
100
AcDbCircle
 10
-379.166649296244
 20
-38.99999999999993
 30
0.0
 40
2.499999999999966
  0
CIRCLE
  5
13F
330
1F
100
AcDbEntity
  8
LASERCUTS$INNER
100
AcDbCircle
 10
-396.7816492962434
 20
-21.38499999999994
 30
0.0
 40
2.499999999999992
  0
CIRCLE
  5
140
330
1F
100
AcDbEntity
  8
LASERCUTS$INNER
100
AcDbCircle
 10
-414.849357418195
 20
-21.38499999999971
 30
0.0
 40
2.499999999999971
  0
CIRCLE
  5
141
330
1F
100
AcDbEntity
  8
LASERCUTS$INNER
100
AcDbCircle
 10
-414.849357418195
 20
-218.6150000000003
 30
0.0
 40
2.499999999999946
  0
CIRCLE
  5
142
330
1F
100
AcDbEntity
  8
LASERCUTS$INNER
100
AcDbCircle
 10
-396.7816492962434
 20
-218.6150000000001
 30
0.0
 40
2.500000000000049
  0
CIRCLE
  5
143
330
1F
100
AcDbEntity
  8
LASERCUTS$INNER
100
AcDbCircle
 10
-379.166649296244
 20
-201.0000000000001
 30
0.0
 40
2.499999999999972
  0
CIRCLE
  5
144
330
1F
100
AcDbEntity
  8
LASERCUTS$INNER
100
AcDbCircle
 10
-379.1666492962443
 20
-182.9322918780485
 30
0.0
 40
2.499999999999997
  0
POLYLINE
  5
145
330
1F
100
AcDbEntity
  8
LASERCUTS$OUTER
100
AcDb2dPolyline
 66
     1
 10
0.0
 20
0.0
 30
0.0
 70
     1
  0
VERTEX
  5
146
330
145
100
AcDbEntity
  8
LASERCUTS$OUTER
100
AcDbVertex
100
AcDb2dVertex
 10
-637.781649296244
 20
-14.84999999999999
 30
0.0
  0
VERTEX
  5
147
330
145
100
AcDbEntity
  8
LASERCUTS$OUTER
100
AcDbVertex
100
AcDb2dVertex
 10
-367.781649296244
 20
-14.84999999999999
 30
0.0
  0
VERTEX
  5
148
330
145
100
AcDbEntity
  8
LASERCUTS$OUTER
100
AcDbVertex
100
AcDb2dVertex
 10
-367.781649296244
 20
-230.0
 30
0.0
  0
VERTEX
  5
149
330
145
100
AcDbEntity
  8
LASERCUTS$OUTER
100
AcDbVertex
100
AcDb2dVertex
 10
-637.781649296244
 20
-230.0
 30
0.0
  0
SEQEND
  5
14A
330
145
100
AcDbEntity
  8
LASERCUTS$OUTER
  0
CIRCLE
  5
14B
330
1F
100
AcDbEntity
  8
LASERCUTS$INNER
100
AcDbCircle
 10
-599.7477952358663
 20
43.64999999998405
 30
0.0
 40
2.499999999999972
  0
CIRCLE
  5
14C
330
1F
100
AcDbEntity
  8
LASERCUTS$INNER
100
AcDbCircle
 10
-599.7477952358663
 20
-8.349999987574122
 30
0.0
 40
2.499999999999939
  0
CIRCLE
  5
14D
330
1F
100
AcDbEntity
  8
LASERCUTS$INNER
100
AcDbCircle
 10
-405.8155033578164
 20
43.64999999998404
 30
0.0
 40
2.499999999999968
  0
CIRCLE
  5
14E
330
1F
100
AcDbEntity
  8
LASERCUTS$INNER
100
AcDbCircle
 10
-405.8155033578164
 20
-8.349999987574066
 30
0.0
 40
2.499999999999939
  0
POLYLINE
  5
14F
330
1F
100
AcDbEntity
  8
LASERCUTS$OUTER
100
AcDb2dPolyline
 66
     1
 10
0.0
 20
0.0
 30
0.0
 70
     1
  0
VERTEX
  5
150
330
14F
100
AcDbEntity
  8
LASERCUTS$OUTER
100
AcDbVertex
100
AcDb2dVertex
 10
-637.781649296244
 20
-14.84999999999998
 30
0.0
  0
VERTEX
  5
151
330
14F
100
AcDbEntity
  8
LASERCUTS$OUTER
100
AcDbVertex
100
AcDb2dVertex
 10
-367.7816492973811
 20
-14.85000000260762
 30
0.0
  0
VERTEX
  5
152
330
14F
100
AcDbEntity
  8
LASERCUTS$OUTER
100
AcDbVertex
100
AcDb2dVertex
 10
-367.7816492962519
 20
50.15000000129284
 30
0.0
  0
VERTEX
  5
153
330
14F
100
AcDbEntity
  8
LASERCUTS$OUTER
100
AcDbVertex
100
AcDb2dVertex
 10
-637.7816492962519
 20
50.15000000000002
 30
0.0
  0
SEQEND
  5
154
330
14F
100
AcDbEntity
  8
LASERCUTS$OUTER
  0
CIRCLE
  5
155
330
1F
100
AcDbEntity
  8
LASERCUTS$INNER
100
AcDbCircle
 10
-361.2816492899387
 20
-53.03385406097557
 30
0.0
 40
2.5
  0
CIRCLE
  5
156
330
1F
100
AcDbEntity
  8
LASERCUTS$INNER
100
AcDbCircle
 10
-361.2816492899387
 20
-196.9661459390244
 30
0.0
 40
2.499999999999972
  0
ENDSEC
  0
SECTION
  2
OBJECTS
  0
DICTIONARY
  5
C
330
0
100
AcDbDictionary
  3
ACAD_GROUP
350
D
  3
ACAD_LAYOUT
350
1A
  3
ACAD_MATERIAL
350
43
  3
ACAD_MLEADERSTYLE
350
6B
  3
ACAD_MLINESTYLE
350
17
  3
ACAD_PLOTSETTINGS
350
19
  3
ACAD_SCALELIST
350
47
  3
ACAD_VISUALSTYLE
350
2A
  3
ACDBHEADERROUNDTRIPXREC
350
157
  3
ACDBVARIABLEDICTIONARY
350
178
  0
DICTIONARY
  5
17F
330
8
100
AcDbDictionary
280
     1
  3
ACAD_XREC_ROUNDTRIP
360
180
  0
DICTIONARY
  5
D
102
{ACAD_REACTORS
330
C
102
}
330
C
100
AcDbDictionary
  0
DICTIONARY
  5
1A
102
{ACAD_REACTORS
330
C
102
}
330
C
100
AcDbDictionary
  0
DICTIONARY
  5
43
102
{ACAD_REACTORS
330
C
102
}
330
C
100
AcDbDictionary
  3
BYBLOCK
350
45
  3
BYLAYER
350
44
  3
GLOBAL
350
46
  0
DICTIONARY
  5
6B
102
{ACAD_REACTORS
330
C
102
}
330
C
100
AcDbDictionary
  3
STANDARD
350
6C
  0
DICTIONARY
  5
17
102
{ACAD_REACTORS
330
C
102
}
330
C
100
AcDbDictionary
  3
STANDARD
350
18
  0
DICTIONARY
  5
19
102
{ACAD_REACTORS
330
C
102
}
330
C
100
AcDbDictionary
  0
DICTIONARY
  5
47
102
{ACAD_REACTORS
330
C
102
}
330
C
100
AcDbDictionary
  3
A0
350
48
  3
A1
350
49
  3
A2
350
4A
  3
A3
350
4B
  3
A4
350
4C
  3
A5
350
4D
  3
A6
350
4E
  3
A7
350
4F
  3
A8
350
50
  3
A9
350
51
  3
B0
350
52
  3
B1
350
53
  3
B2
350
54
  3
B3
350
55
  3
B4
350
56
  3
B5
350
57
  3
B6
350
58
  3
B7
350
59
  3
B8
350
5A
  3
B9
350
5B
  3
C0
350
5C
  3
C1
350
5D
  3
C2
350
5E
  3
C3
350
5F
  3
C4
350
60
  3
C5
350
61
  3
C6
350
62
  3
C7
350
63
  3
C8
350
64
  3
C9
350
65
  3
D0
350
66
  3
D1
350
67
  3
D2
350
68
  0
DICTIONARY
  5
2A
102
{ACAD_REACTORS
330
C
102
}
330
C
100
AcDbDictionary
  3
2DWIREFRAME
350
2F
  3
BASIC
350
32
  3
BRIGHTEN
350
36
  3
COLORCHANGE
350
3A
  3
CONCEPTUAL
350
34
  3
DIM
350
35
  3
EDGECOLOROFF
350
3D
  3
FACEPATTERN
350
39
  3
FLAT
350
2B
  3
FLATWITHEDGES
350
2C
  3
GOURAUD
350
2D
  3
GOURAUDWITHEDGES
350
2E
  3
HIDDEN
350
31
  3
JITTEROFF
350
3B
  3
LINEPATTERN
350
38
  3
OVERHANGOFF
350
3C
  3
REALISTIC
350
33
  3
SHADED
350
42
  3
SHADED_WITH_EDGES
350
41
  3
SHADES_OF_GRAY
350
3E
  3
SKETCHY
350
3F
  3
THICKEN
350
37
  3
WIREFRAME
350
30
  3
X-RAY
350
40
  0
DICTIONARY
  5
157
102
{ACAD_REACTORS
330
C
102
}
330
C
100
AcDbDictionary
  3
CEPSNID
350
161
  3
CEPSNTYPE
350
160
  3
DIMSTYLEDATA
350
177
  3
FINGERPRINTGUID
350
162
  3
HYPERLINKBASE
350
15A
  3
INSUNITS
350
15F
  3
LAYOUTDICT
350
15C
  3
LWETCUNION
350
15E
  3
PLOTSETDICT
350
15D
  3
PSVPSCALE
350
164
  3
PUCSBASE
350
167
  3
PUCSORGBACK
350
16D
  3
PUCSORGBOTTOM
350
169
  3
PUCSORGFRONT
350
16C
  3
PUCSORGLEFT
350
16A
  3
PUCSORGRIGHT
350
16B
  3
PUCSORGTOP
350
168
  3
PUCSORTHOREF
350
165
  3
PUCSORTHOVIEW
350
166
  3
STYLESHEET
350
15B
  3
TSTACKALIGN
350
158
  3
TSTACKSIZE
350
159
  3
UCSBASE
350
170
  3
UCSORGBACK
350
176
  3
UCSORGBOTTOM
350
172
  3
UCSORGFRONT
350
175
  3
UCSORGLEFT
350
173
  3
UCSORGRIGHT
350
174
  3
UCSORGTOP
350
171
  3
UCSORTHOREF
350
16E
  3
UCSORTHOVIEW
350
16F
  3
VERSIONGUID
350
163
  0
DICTIONARY
  5
178
102
{ACAD_REACTORS
330
C
102
}
330
C
100
AcDbDictionary
  3
CANNOSCALE
350
181
  3
CMLEADERSTYLE
350
17A
  3
CTABLESTYLE
350
179
  3
DIMASSOC
350
17D
  3
HIDETEXT
350
17E
  3
MSLTSCALE
350
182
  0
XRECORD
  5
180
102
{ACAD_REACTORS
330
17F
102
}
330
17F
100
AcDbXrecord
102
VTR_0.000_0.000_1.000_1.000_GRIDDISPLAY
 70
     3
102
VTR_0.000_0.000_1.000_1.000_GRIDMAJOR
 70
     5
102
VTR_0.000_0.000_1.000_1.000_DEFAULTLIGHTING
280
     1
102
VTR_0.000_0.000_1.000_1.000_DEFAULTLIGHTINGTYPE
 70
     1
102
VTR_0.000_0.000_1.000_1.000_BRIGHTNESS
141
0.0
102
VTR_0.000_0.000_1.000_1.000_CONTRAST
142
0.0
  0
MATERIAL
  5
45
102
{ACAD_REACTORS
330
43
102
}
102
{ACAD_XDICTIONARY
360
185
102
}
330
43
100
AcDbMaterial
  1
BYBLOCK
  0
MATERIAL
  5
44
102
{ACAD_REACTORS
330
43
102
}
102
{ACAD_XDICTIONARY
360
183
102
}
330
43
100
AcDbMaterial
  1
BYLAYER
  0
MATERIAL
  5
46
102
{ACAD_REACTORS
330
43
102
}
102
{ACAD_XDICTIONARY
360
187
102
}
330
43
100
AcDbMaterial
  1
GLOBAL
  0
ACAD_PROXY_OBJECT
  5
6C
102
{ACAD_REACTORS
330
6B
102
}
330
6B
100
AcDbProxyObject
 90
      499
 91
      505
 93
      610
310
40901902A4063FBFFFFFE056BD1B81E855B9FC0AD7A3703D0AD73F4214DD185B99185C9900AD7A3703D0AC73F90141901A02B5E8DC0F42B1CFC02B5E8DC0F42B1CFE5764000000000000300FC0
340
14
340
0
340
11
340
0
 94
        0
1001
ACAD_MLEADERVER
1070
     2
  0
MLINESTYLE
  5
18
102
{ACAD_REACTORS
330
17
102
}
330
17
100
AcDbMlineStyle
  2
Standard
 70
     0
  3

 62
   256
 51
90.0
 52
90.0
 71
     2
 49
0.5
 62
   256
  6
BYLAYER
 49
-0.5
 62
   256
  6
BYLAYER
  0
ACAD_PROXY_OBJECT
  5
48
102
{ACAD_REACTORS
330
47
102
}
330
47
100
AcDbProxyObject
 90
      499
 91
      503
 93
       41
310
903313A31580
  0
ACAD_PROXY_OBJECT
  5
49
102
{ACAD_REACTORS
330
47
102
}
330
47
100
AcDbProxyObject
 90
      499
 91
      503
 93
      105
310
903313A324000000000000004000
  0
ACAD_PROXY_OBJECT
  5
4A
102
{ACAD_REACTORS
330
47
102
}
330
47
100
AcDbProxyObject
 90
      499
 91
      503
 93
      105
310
903313A344000000000000104000
  0
ACAD_PROXY_OBJECT
  5
4B
102
{ACAD_REACTORS
330
47
102
}
330
47
100
AcDbProxyObject
 90
      499
 91
      503
 93
      105
310
903313A354000000000000144000
  0
ACAD_PROXY_OBJECT
  5
4C
102
{ACAD_REACTORS
330
47
102
}
330
47
100
AcDbProxyObject
 90
      499
 91
      503
 93
      105
310
903313A384000000000000204000
  0
ACAD_PROXY_OBJECT
  5
4D
102
{ACAD_REACTORS
330
47
102
}
330
47
100
AcDbProxyObject
 90
      499
 91
      503
 93
      113
310
904313A31304000000000000244000
  0
ACAD_PROXY_OBJECT
  5
4E
102
{ACAD_REACTORS
330
47
102
}
330
47
100
AcDbProxyObject
 90
      499
 91
      503
 93
      113
310
904313A31364000000000000304000
  0
ACAD_PROXY_OBJECT
  5
4F
102
{ACAD_REACTORS
330
47
102
}
330
47
100
AcDbProxyObject
 90
      499
 91
      503
 93
      113
310
904313A32304000000000000344000
  0
ACAD_PROXY_OBJECT
  5
50
102
{ACAD_REACTORS
330
47
102
}
330
47
100
AcDbProxyObject
 90
      499
 91
      503
 93
      113
310
904313A333040000000000003E4000
  0
ACAD_PROXY_OBJECT
  5
51
102
{ACAD_REACTORS
330
47
102
}
330
47
100
AcDbProxyObject
 90
      499
 91
      503
 93
      113
310
904313A34304000000000000444000
  0
ACAD_PROXY_OBJECT
  5
52
102
{ACAD_REACTORS
330
47
102
}
330
47
100
AcDbProxyObject
 90
      499
 91
      503
 93
      113
310
904313A35304000000000000494000
  0
ACAD_PROXY_OBJECT
  5
53
102
{ACAD_REACTORS
330
47
102
}
330
47
100
AcDbProxyObject
 90
      499
 91
      503
 93
      121
310
905313A3130304000000000000594000
  0
ACAD_PROXY_OBJECT
  5
54
102
{ACAD_REACTORS
330
47
102
}
330
47
100
AcDbProxyObject
 90
      499
 91
      503
 93
      105
310
903323A310000000000000010100
  0
ACAD_PROXY_OBJECT
  5
55
102
{ACAD_REACTORS
330
47
102
}
330
47
100
AcDbProxyObject
 90
      499
 91
      503
 93
      105
310
903343A310000000000000410100
  0
ACAD_PROXY_OBJECT
  5
56
102
{ACAD_REACTORS
330
47
102
}
330
47
100
AcDbProxyObject
 90
      499
 91
      503
 93
      105
310
903383A310000000000000810100
  0
ACAD_PROXY_OBJECT
  5
57
102
{ACAD_REACTORS
330
47
102
}
330
47
100
AcDbProxyObject
 90
      499
 91
      503
 93
      113
310
90431303A310000000000000910100
  0
ACAD_PROXY_OBJECT
  5
58
102
{ACAD_REACTORS
330
47
102
}
330
47
100
AcDbProxyObject
 90
      499
 91
      503
 93
      121
310
9053130303A310000000000001650100
  0
ACAD_PROXY_OBJECT
  5
59
102
{ACAD_REACTORS
330
47
102
}
330
47
100
AcDbProxyObject
 90
      499
 91
      503
 93
      257
310
90E312F31323822203D2031272D3022000000000000200FC000000000000284000
  0
ACAD_PROXY_OBJECT
  5
5A
102
{ACAD_REACTORS
330
47
102
}
330
47
100
AcDbProxyObject
 90
      499
 91
      503
 93
      249
310
90D312F363422203D2031272D3022000000000000240FC000000000000284000
  0
ACAD_PROXY_OBJECT
  5
5B
102
{ACAD_REACTORS
330
47
102
}
330
47
100
AcDbProxyObject
 90
      499
 91
      503
 93
      249
310
90D312F333222203D2031272D3022000000000000280FC000000000000284000
  0
ACAD_PROXY_OBJECT
  5
5C
102
{ACAD_REACTORS
330
47
102
}
330
47
100
AcDbProxyObject
 90
      499
 91
      503
 93
      249
310
90D312F313622203D2031272D30220000000000002C0FC000000000000284000
  0
ACAD_PROXY_OBJECT
  5
5D
102
{ACAD_REACTORS
330
47
102
}
330
47
100
AcDbProxyObject
 90
      499
 91
      503
 93
      249
310
90D332F333222203D2031272D30220000000000002E0FC000000000000284000
  0
ACAD_PROXY_OBJECT
  5
5E
102
{ACAD_REACTORS
330
47
102
}
330
47
100
AcDbProxyObject
 90
      499
 91
      503
 93
      241
310
90C312F3822203D2031272D3022000000000000300FC000000000000284000
  0
ACAD_PROXY_OBJECT
  5
5F
102
{ACAD_REACTORS
330
47
102
}
330
47
100
AcDbProxyObject
 90
      499
 91
      503
 93
      249
310
90D332F313622203D2031272D3022000000000000320FC000000000000284000
  0
ACAD_PROXY_OBJECT
  5
60
102
{ACAD_REACTORS
330
47
102
}
330
47
100
AcDbProxyObject
 90
      499
 91
      503
 93
      241
310
90C312F3422203D2031272D3022000000000000340FC000000000000284000
  0
ACAD_PROXY_OBJECT
  5
61
102
{ACAD_REACTORS
330
47
102
}
330
47
100
AcDbProxyObject
 90
      499
 91
      503
 93
      241
310
90C332F3822203D2031272D3022000000000000360FC000000000000284000
  0
ACAD_PROXY_OBJECT
  5
62
102
{ACAD_REACTORS
330
47
102
}
330
47
100
AcDbProxyObject
 90
      499
 91
      503
 93
      241
310
90C312F3222203D2031272D3022000000000000380FC000000000000284000
  0
ACAD_PROXY_OBJECT
  5
63
102
{ACAD_REACTORS
330
47
102
}
330
47
100
AcDbProxyObject
 90
      499
 91
      503
 93
      241
310
90C332F3422203D2031272D30220000000000003A0FC000000000000284000
  0
ACAD_PROXY_OBJECT
  5
64
102
{ACAD_REACTORS
330
47
102
}
330
47
100
AcDbProxyObject
 90
      499
 91
      503
 93
      161
310
90A3122203D2031272D30224000000000000284000
  0
ACAD_PROXY_OBJECT
  5
65
102
{ACAD_REACTORS
330
47
102
}
330
47
100
AcDbProxyObject
 90
      499
 91
      503
 93
      257
310
90E312D312F3222203D2031272D30220000000000003E0FC000000000000284000
  0
ACAD_PROXY_OBJECT
  5
66
102
{ACAD_REACTORS
330
47
102
}
330
47
100
AcDbProxyObject
 90
      499
 91
      503
 93
      225
310
90A3322203D2031272D302200000000000002100000000000000284000
  0
ACAD_PROXY_OBJECT
  5
67
102
{ACAD_REACTORS
330
47
102
}
330
47
100
AcDbProxyObject
 90
      499
 91
      503
 93
      225
310
90A3622203D2031272D302200000000000006100000000000000284000
  0
ACAD_PROXY_OBJECT
  5
68
102
{ACAD_REACTORS
330
47
102
}
330
47
100
AcDbProxyObject
 90
      499
 91
      503
 93
      249
310
90D31272D3022203D2031272D30220000000000000A100000000000000284000
  0
ACAD_PROXY_OBJECT
  5
2F
102
{ACAD_REACTORS
330
2A
102
}
330
2A
100
AcDbProxyObject
 90
      499
 91
      501
 93
      436
310
42CC9915DA5C99599C985B595049028333333333333E33F0000000000000F90107901411070040501600405405064090741402480A0340
1001
ACAD
1000
AcDbSavedByObjectVersion
1070
     0
  0
ACAD_PROXY_OBJECT
  5
32
102
{ACAD_REACTORS
330
2A
102
}
330
2A
100
AcDbProxyObject
 90
      499
 91
      501
 93
      388
310
4150985CDA58D07406404333333333333E33F0000000000000F90107A41107004050150841D405064090741402480A0350
1001
ACAD
1000
AcDbSavedByObjectVersion
1070
     0
  0
ACAD_PROXY_OBJECT
  5
36
102
{ACAD_REACTORS
330
2A
102
}
330
2A
100
AcDbProxyObject
 90
      499
 91
      501
 93
      428
310
42109C9A59DA1D195B90C409028333333333333E33F0000000000000F9010790141107004050150841D405064090741402480A029950
1001
ACAD
1000
AcDbSavedByObjectVersion
1070
     0
  0
ACAD_PROXY_OBJECT
  5
3A
102
{ACAD_REACTORS
330
2A
102
}
330
2A
100
AcDbProxyObject
 90
      499
 91
      501
 93
      452
310
42D0DBDB1BDC90DA185B99D95104090240C333333333333E33F0000000000000F90108901411070040501508421405064090741402480A0350
1001
ACAD
1000
AcDbSavedByObjectVersion
1070
     0
  0
ACAD_PROXY_OBJECT
  5
34
102
{ACAD_REACTORS
330
2A
102
}
330
2A
100
AcDbProxyObject
 90
      499
 91
      501
 93
      500
310
4290DBDB98D95C1D1D585B10940D028333333333333E33F0000000000000F90107902409070040501000000000018199010841D405064090740C02480A0340
1001
ACAD
1000
AcDbSavedByObjectVersion
1070
     0
  0
ACAD_PROXY_OBJECT
  5
35
102
{ACAD_REACTORS
330
2A
102
}
330
2A
100
AcDbProxyObject
 90
      499
 91
      501
 93
      412
310
40D11A5B50B409028333333333333E33F0000000000000F9010790141107004050150841D405064090741402480A02677FFFFFD0
1001
ACAD
1000
AcDbSavedByObjectVersion
1070
     0
  0
ACAD_PROXY_OBJECT
  5
3D
102
{ACAD_REACTORS
330
2A
102
}
330
2A
100
AcDbProxyObject
 90
      499
 91
      501
 93
      452
310
43115919D950DBDB1BDC93D999916409028333333333333E33F0000000000000F9010790141107004050150841D405064090741402480A0350
1001
ACAD
1000
AcDbSavedByObjectVersion
1070
     0
  0
ACAD_PROXY_OBJECT
  5
39
102
{ACAD_REACTORS
330
2A
102
}
330
2A
100
AcDbProxyObject
 90
      499
 91
      501
 93
      444
310
42D19858D95C185D1D195C9B90F409028333333333333E33F0000000000000F9010790141107004050150841D405064090741402480A0350
1001
ACAD
1000
AcDbSavedByObjectVersion
1070
     0
  0
ACAD_PROXY_OBJECT
  5
2B
102
{ACAD_REACTORS
330
2A
102
}
330
2A
100
AcDbProxyObject
 90
      499
 91
      501
 93
      380
310
41119B185D240901404333333333333E33F0000000000000F9010740A907004050150841D405064090741402480A1B50
1001
ACAD
1000
AcDbSavedByObjectVersion
1070
     0
  0
ACAD_PROXY_OBJECT
  5
2C
102
{ACAD_REACTORS
330
2A
102
}
330
2A
100
AcDbProxyObject
 90
      499
 91
      501
 93
      468
310
43519B185D15DA5D1A115919D95CD0140901404333333333333E33F0000000000000F90107409019070040501600405405064090741402480A1B50
1001
ACAD
1000
AcDbSavedByObjectVersion
1070
     0
  0
ACAD_PROXY_OBJECT
  5
2D
102
{ACAD_REACTORS
330
2A
102
}
330
2A
100
AcDbProxyObject
 90
      499
 91
      501
 93
      404
310
41D1DBDD5C985D5910240902404333333333333E33F0000000000000F9010740A9070040501641D405064090741402480A1B50
1001
ACAD
1000
AcDbSavedByObjectVersion
1070
     0
  0
ACAD_PROXY_OBJECT
  5
2E
102
{ACAD_REACTORS
330
2A
102
}
330
2A
100
AcDbProxyObject
 90
      499
 91
      501
 93
      492
310
4411DBDD5C985D5915DA5D1A115919D95CD0340902404333333333333E33F0000000000000F90107409019070040501600405405064090741402480A1B50
1001
ACAD
1000
AcDbSavedByObjectVersion
1070
     0
  0
ACAD_PROXY_OBJECT
  5
31
102
{ACAD_REACTORS
330
2A
102
}
330
2A
100
AcDbProxyObject
 90
      499
 91
      501
 93
      476
310
41921A5919195B90640502408333333333333E33F0000000000000F901079024090700405020000000000001110200405405064090740C02480A0340
1001
ACAD
1000
AcDbSavedByObjectVersion
1070
     0
  0
ACAD_PROXY_OBJECT
  5
3B
102
{ACAD_REACTORS
330
2A
102
}
330
2A
100
AcDbProxyObject
 90
      499
 91
      501
 93
      428
310
42529A5D1D195C93D999914409028333333333333E33F0000000000000F9010790141107004050150A41D405064090741402480A0350
1001
ACAD
1000
AcDbSavedByObjectVersion
1070
     0
  0
ACAD_PROXY_OBJECT
  5
38
102
{ACAD_REACTORS
330
2A
102
}
330
2A
100
AcDbProxyObject
 90
      499
 91
      501
 93
      444
310
42D31A5B995C185D1D195C9B90E409028333333333333E33F0000000000000F9010790141107004050750841D405064090741402483A0350
1001
ACAD
1000
AcDbSavedByObjectVersion
1070
     0
  0
ACAD_PROXY_OBJECT
  5
3C
102
{ACAD_REACTORS
330
2A
102
}
330
2A
100
AcDbProxyObject
 90
      499
 91
      501
 93
      444
310
42D3DD995C9A185B99D3D999915409028333333333333E33F0000000000000F9010790141107004050150941D405064090741402480A0350
1001
ACAD
1000
AcDbSavedByObjectVersion
1070
     0
  0
ACAD_PROXY_OBJECT
  5
33
102
{ACAD_REACTORS
330
2A
102
}
330
2A
100
AcDbProxyObject
 90
      499
 91
      501
 93
      428
310
425499585B1A5CDD1A58D08409038333333333333E33F0000000000000F9010740A907004050150800405405064090740C02480A1B40
1001
ACAD
1000
AcDbSavedByObjectVersion
1070
     0
  0
ACAD_PROXY_OBJECT
  5
42
102
{ACAD_REACTORS
330
2A
102
}
330
2A
100
AcDbProxyObject
 90
      499
 91
      501
 93
      420
310
4194DA1859195911B40902404333333333333E33F0000000000000F9010740A41107004050150800405405064090840C02480A0B40
1001
ACAD
1000
AcDbSavedByObjectVersion
1070
     0
  0
ACAD_PROXY_OBJECT
  5
41
102
{ACAD_REACTORS
330
2A
102
}
330
2A
100
AcDbProxyObject
 90
      499
 91
      501
 93
      516
310
4454DA18591959081DDA5D1A08195919D95CD1A40902404333333333333E33F0000000000000F901074090142907004050250800405405064090740C02480A0B40
1001
ACAD
1000
AcDbSavedByObjectVersion
1070
     0
  0
ACAD_PROXY_OBJECT
  5
3E
102
{ACAD_REACTORS
330
2A
102
}
330
2A
100
AcDbProxyObject
 90
      499
 91
      501
 93
      532
310
4394DA1859195CC81BD98811DC985E5174090240C333333333333E33F0000000000000F901079024090741D01000000000000111010841D405064090740C02480A0340
1001
ACAD
1000
AcDbSavedByObjectVersion
1070
     0
  0
ACAD_PROXY_OBJECT
  5
3F
102
{ACAD_REACTORS
330
2A
102
}
330
2A
100
AcDbProxyObject
 90
      499
 91
      501
 93
      476
310
41D4DAD95D18DA1E51840502408333333333333E33F0000000000000F901079024090741D01000000000000111010B41D405064090741802480A0340
1001
ACAD
1000
AcDbSavedByObjectVersion
1070
     0
  0
ACAD_PROXY_OBJECT
  5
37
102
{ACAD_REACTORS
330
2A
102
}
330
2A
100
AcDbProxyObject
 90
      499
 91
      501
 93
      412
310
41D51A1A58DAD95B90D409028333333333333E33F0000000000000F9010790141107004050150C41D405064090741402480A0350
1001
ACAD
1000
AcDbSavedByObjectVersion
1070
     0
  0
ACAD_PROXY_OBJECT
  5
30
102
{ACAD_REACTORS
330
2A
102
}
330
2A
100
AcDbProxyObject
 90
      499
 91
      501
 93
      420
310
4255DA5C99599C985B595059028333333333333E33F0000000000000F90107901411070040501600405405064090740C02480A0340
1001
ACAD
1000
AcDbSavedByObjectVersion
1070
     0
  0
ACAD_PROXY_OBJECT
  5
40
102
{ACAD_REACTORS
330
2A
102
}
330
2A
100
AcDbProxyObject
 90
      499
 91
      501
 93
      404
310
41560B54985E51940902404000000000000E03F0000000000000F9010740501907004050150841D405064090740C02480A1B40
1001
ACAD
1000
AcDbSavedByObjectVersion
1070
     0
  0
XRECORD
  5
161
102
{ACAD_REACTORS
330
157
102
}
330
157
100
AcDbXrecord
340
0
  0
XRECORD
  5
160
102
{ACAD_REACTORS
330
157
102
}
330
157
100
AcDbXrecord
 90
        0
  0
XRECORD
  5
177
102
{ACAD_REACTORS
330
157
102
}
330
157
100
AcDbXrecord
1000
DSTYLE
1002
{
1070
   279
 70
     2
1070
   340
340
11
1002
}
  0
XRECORD
  5
162
102
{ACAD_REACTORS
330
157
102
}
330
157
100
AcDbXrecord
  1
{18083F95-9A92-4901-AD0F-854A1FAE46D5}
  0
XRECORD
  5
15A
102
{ACAD_REACTORS
330
157
102
}
330
157
100
AcDbXrecord
  1

  0
XRECORD
  5
15F
102
{ACAD_REACTORS
330
157
102
}
330
157
100
AcDbXrecord
 90
        4
  0
XRECORD
  5
15C
102
{ACAD_REACTORS
330
157
102
}
330
157
100
AcDbXrecord
340
1A
  0
XRECORD
  5
15E
102
{ACAD_REACTORS
330
157
102
}
330
157
100
AcDbXrecord
 90
    10781
  0
XRECORD
  5
15D
102
{ACAD_REACTORS
330
157
102
}
330
157
100
AcDbXrecord
340
19
  0
XRECORD
  5
164
102
{ACAD_REACTORS
330
157
102
}
330
157
100
AcDbXrecord
 40
0.0
  0
XRECORD
  5
167
102
{ACAD_REACTORS
330
157
102
}
330
157
100
AcDbXrecord
340
0
  0
XRECORD
  5
16D
102
{ACAD_REACTORS
330
157
102
}
330
157
100
AcDbXrecord
 10
0.0
 20
0.0
 30
0.0
  0
XRECORD
  5
169
102
{ACAD_REACTORS
330
157
102
}
330
157
100
AcDbXrecord
 10
0.0
 20
0.0
 30
0.0
  0
XRECORD
  5
16C
102
{ACAD_REACTORS
330
157
102
}
330
157
100
AcDbXrecord
 10
0.0
 20
0.0
 30
0.0
  0
XRECORD
  5
16A
102
{ACAD_REACTORS
330
157
102
}
330
157
100
AcDbXrecord
 10
0.0
 20
0.0
 30
0.0
  0
XRECORD
  5
16B
102
{ACAD_REACTORS
330
157
102
}
330
157
100
AcDbXrecord
 10
0.0
 20
0.0
 30
0.0
  0
XRECORD
  5
168
102
{ACAD_REACTORS
330
157
102
}
330
157
100
AcDbXrecord
 10
0.0
 20
0.0
 30
0.0
  0
XRECORD
  5
165
102
{ACAD_REACTORS
330
157
102
}
330
157
100
AcDbXrecord
340
0
  0
XRECORD
  5
166
102
{ACAD_REACTORS
330
157
102
}
330
157
100
AcDbXrecord
 70
     0
  0
XRECORD
  5
15B
102
{ACAD_REACTORS
330
157
102
}
330
157
100
AcDbXrecord
  1

  0
XRECORD
  5
158
102
{ACAD_REACTORS
330
157
102
}
330
157
100
AcDbXrecord
 90
        1
  0
XRECORD
  5
159
102
{ACAD_REACTORS
330
157
102
}
330
157
100
AcDbXrecord
 90
       70
  0
XRECORD
  5
170
102
{ACAD_REACTORS
330
157
102
}
330
157
100
AcDbXrecord
340
0
  0
XRECORD
  5
176
102
{ACAD_REACTORS
330
157
102
}
330
157
100
AcDbXrecord
 10
0.0
 20
0.0
 30
0.0
  0
XRECORD
  5
172
102
{ACAD_REACTORS
330
157
102
}
330
157
100
AcDbXrecord
 10
0.0
 20
0.0
 30
0.0
  0
XRECORD
  5
175
102
{ACAD_REACTORS
330
157
102
}
330
157
100
AcDbXrecord
 10
0.0
 20
0.0
 30
0.0
  0
XRECORD
  5
173
102
{ACAD_REACTORS
330
157
102
}
330
157
100
AcDbXrecord
 10
0.0
 20
0.0
 30
0.0
  0
XRECORD
  5
174
102
{ACAD_REACTORS
330
157
102
}
330
157
100
AcDbXrecord
 10
0.0
 20
0.0
 30
0.0
  0
XRECORD
  5
171
102
{ACAD_REACTORS
330
157
102
}
330
157
100
AcDbXrecord
 10
0.0
 20
0.0
 30
0.0
  0
XRECORD
  5
16E
102
{ACAD_REACTORS
330
157
102
}
330
157
100
AcDbXrecord
340
0
  0
XRECORD
  5
16F
102
{ACAD_REACTORS
330
157
102
}
330
157
100
AcDbXrecord
 70
     0
  0
XRECORD
  5
163
102
{ACAD_REACTORS
330
157
102
}
330
157
100
AcDbXrecord
  1
{FAEB1C32-E019-11D5-929B-00C0DF256EC4}
  0
DICTIONARYVAR
  5
181
102
{ACAD_REACTORS
330
178
102
}
330
178
100
DictionaryVariables
280
     0
  1
1:1
  0
DICTIONARYVAR
  5
17A
102
{ACAD_REACTORS
330
178
102
}
330
178
100
DictionaryVariables
280
     0
  1
Standard
  0
DICTIONARYVAR
  5
179
102
{ACAD_REACTORS
330
178
102
}
330
178
100
DictionaryVariables
280
     0
  1
Standard
  0
DICTIONARYVAR
  5
17D
102
{ACAD_REACTORS
330
178
102
}
330
178
100
DictionaryVariables
280
     0
  1
2
  0
DICTIONARYVAR
  5
17E
102
{ACAD_REACTORS
330
178
102
}
330
178
100
DictionaryVariables
280
     0
  1
1
  0
DICTIONARYVAR
  5
182
102
{ACAD_REACTORS
330
178
102
}
330
178
100
DictionaryVariables
280
     0
  1
1
  0
DICTIONARY
  5
185
330
45
100
AcDbDictionary
280
     1
  3
ACAD_XREC_ROUNDTRIP
360
186
  0
DICTIONARY
  5
183
330
44
100
AcDbDictionary
280
     1
  3
ACAD_XREC_ROUNDTRIP
360
184
  0
DICTIONARY
  5
187
330
46
100
AcDbDictionary
280
     1
  3
ACAD_XREC_ROUNDTRIP
360
188
  0
XRECORD
  5
186
102
{ACAD_REACTORS
330
185
102
}
330
185
100
AcDbXrecord
102
MATERIAL
148
0.0
149
0.0
149
0.0
 93
        0
 94
      127
282
     0
 72
     1
 77
     1
171
     1
175
     1
179
     1
273
     0
  0
XRECORD
  5
184
102
{ACAD_REACTORS
330
183
102
}
330
183
100
AcDbXrecord
102
MATERIAL
148
0.0
149
0.0
149
0.0
 93
        0
 94
      127
282
     0
 72
     1
 77
     1
171
     1
175
     1
179
     1
273
     0
  0
XRECORD
  5
188
102
{ACAD_REACTORS
330
187
102
}
330
187
100
AcDbXrecord
102
MATERIAL
148
0.0
149
0.0
149
0.0
 93
        0
 94
      127
282
     0
 72
     1
 77
     1
171
     1
175
     1
179
     1
273
     0
  0
ENDSEC
  0
EOF
