<?xml version="1.0" encoding="UTF-8" standalone="no"?>
<!-- Svg Vector Icons : http://www.onlinewebfonts.com/icon -->

<svg
   xmlns:dc="http://purl.org/dc/elements/1.1/"
   xmlns:cc="http://creativecommons.org/ns#"
   xmlns:rdf="http://www.w3.org/1999/02/22-rdf-syntax-ns#"
   xmlns:svg="http://www.w3.org/2000/svg"
   xmlns="http://www.w3.org/2000/svg"
   xmlns:sodipodi="http://sodipodi.sourceforge.net/DTD/sodipodi-0.dtd"
   xmlns:inkscape="http://www.inkscape.org/namespaces/inkscape"
   version="1.1"
   x="0px"
   y="0px"
   viewBox="0 0 1000 1000"
   enable-background="new 0 0 1000 1000"
   xml:space="preserve"
   id="svg8"
   sodipodi:docname="bellIcon.svg"
   inkscape:version="0.92.2 (5c3e80d, 2017-08-06)"><defs
     id="defs12" /><sodipodi:namedview
     pagecolor="#ffffff"
     bordercolor="#666666"
     borderopacity="1"
     objecttolerance="10"
     gridtolerance="10"
     guidetolerance="10"
     inkscape:pageopacity="0"
     inkscape:pageshadow="2"
     inkscape:window-width="1099"
     inkscape:window-height="894"
     id="namedview10"
     showgrid="false"
     inkscape:zoom="0.472"
     inkscape:cx="627.91011"
     inkscape:cy="511.46881"
     inkscape:window-x="1791"
     inkscape:window-y="207"
     inkscape:window-maximized="0"
     inkscape:current-layer="svg8"
     inkscape:pagecheckerboard="false" /><metadata
     id="metadata2"> Svg Vector Icons : http://www.onlinewebfonts.com/icon <rdf:RDF><cc:Work
     rdf:about=""><dc:format>image/svg+xml</dc:format><dc:type
       rdf:resource="http://purl.org/dc/dcmitype/StillImage" /><dc:title></dc:title></cc:Work></rdf:RDF></metadata><g
     id="g6"><path
       d="m 588.7,899.7 c 0,0.4 0.1,0.8 0.1,1.2 0,49.2 -39.8,89 -88.8,89 -49,0 -88.8,-39.9 -88.8,-89 0,-0.4 0.1,-0.8 0.1,-1.2 C 127.2,891.9 54.5,895.6 54.5,839.6 54.5,822 78.080204,770.30138 100.8,746.7 235,597.1 254.9,632.5 254.9,410.9 c 0,-147.7 6,-283.2 184,-307.6 -3.5,-8.2 -5.5,-17.1 -5.5,-26.5 0,-36.9 29.8,-66.8 66.6,-66.8 36.8,0 66.6,29.9 66.6,66.8 0,9.4 -2,18.4 -5.5,26.5 177.9,24.4 182.42874,159.80835 184,307.6 2.1997,206.90213 20.26335,178.31921 157.4,339 20.33574,23.82706 43.1,72.5 43.1,89.6 0,56.1 -74.7,52.4 -356.9,60.2 z M 500,945.5 c 24.6,0 44.4,-19.9 44.4,-44.5 v -0.4 c -14.5,0.2 -28.9,0.4 -44.4,0.4 -15.5,0 -29.9,-0.2 -44.4,-0.4 v 0.4 c 0,24.6 19.8,44.5 44.4,44.5 z m 0,-891 c -12.3,0 -22.2,10 -22.2,22.3 0,12.3 9.9,22.2 22.2,22.2 12.3,0 22.2,-10 22.2,-22.3 0,-12.3 -9.9,-22.2 -22.2,-22.2 z m 374.2,729.9 c 0,0 -36.87351,-52.19243 -92.47351,-102.79243 C 705.82649,612.40757 700.5,585.6 700.5,410.8 700.5,240.1 691.2,143.5 500,143.5 c -191.2,0 -200.5,96.6 -200.5,267.3 0,174.8 -3.82839,207.7 -79.82839,276.8 -54.5,49.7 -91.27161,93.8 -91.27161,93.8 -7.15284,10.12169 -33.987777,48.54203 -29.4,58 5.5795,11.50246 4.6,16.9 401,16.9 396.4,0 395.71072,-8.9111 401,-16.9 4.23385,-6.39478 -20.62169,-45.27194 -26.8,-55 z"
       id="path4"
       inkscape:connector-curvature="0"
       sodipodi:nodetypes="cssscscscssscssscsscscsssssssccsssccsssc" /></g></svg>