<?xml version="1.0" encoding="utf-8"?>
<!-- Svg Vector Icons : http://www.onlinewebfonts.com/icon -->
<!DOCTYPE svg PUBLIC "-//W3C//DTD SVG 1.1//EN" "http://www.w3.org/Graphics/SVG/1.1/DTD/svg11.dtd">
<svg version="1.1" xmlns="http://www.w3.org/2000/svg" xmlns:xlink="http://www.w3.org/1999/xlink" x="0px" y="0px" viewBox="0 0 1000 1000" enable-background="new 0 0 1000 1000" xml:space="preserve">
<metadata> Svg Vector Icons : http://www.onlinewebfonts.com/icon </metadata>
<g><path d="M588.7,899.7c0,0.4,0.1,0.8,0.1,1.2c0,49.2-39.8,89-88.8,89s-88.8-39.9-88.8-89c0-0.4,0.1-0.8,0.1-1.2c-284.1-7.8-356.8-54.1-356.8-110.1c0-17.6,7.7-34.1,26.3-48.9C215,591.1,254.9,632.5,254.9,410.9c0-147.7,6-283.2,184-307.6c-3.5-8.2-5.5-17.1-5.5-26.5c0-36.9,29.8-66.8,66.6-66.8c36.8,0,66.6,29.9,66.6,66.8c0,9.4-2,18.4-5.5,26.5c177.9,24.4,184,159.8,184,307.6c0,222.3,40.1,179.8,175.4,331c17.7,14.5,25.1,30.5,25.1,47.6C945.6,845.6,870.9,891.9,588.7,899.7z M500,945.5c24.6,0,44.4-19.9,44.4-44.5c0-0.1,0-0.3,0-0.4c-14.5,0.2-28.9,0.4-44.4,0.4s-29.9-0.2-44.4-0.4c0,0.1,0,0.3,0,0.4C455.6,925.6,475.4,945.5,500,945.5z M500,54.5c-12.3,0-22.2,10-22.2,22.3S487.7,99,500,99c12.3,0,22.2-10,22.2-22.3S512.3,54.5,500,54.5z M892.2,776.4c0,0-33.9-38.2-89.5-88.8c-75.9-69.2-102.2-102-102.2-276.8c0-170.7-9.3-267.3-200.5-267.3s-200.5,96.6-200.5,267.3c0,174.8-26.3,207.7-102.3,276.8c-54.5,49.7-88.8,87.8-88.8,87.8c-9.4,7.5-9.4,11.9-9.4,14c0,2.7,4.6,66.9,401,66.9s401-64.2,401-66.9C901,787.8,901,783.6,892.2,776.4z"/></g>
</svg>